<?xml version="1.0" standalone="no"?>
<!DOCTYPE svg PUBLIC "-//W3C//DTD SVG 1.1//EN" "http://www.w3.org/Graphics/SVG/1.1/DTD/svg11.dtd" >
<svg xmlns="http://www.w3.org/2000/svg" xmlns:xlink="http://www.w3.org/1999/xlink" version="1.1">
<metadata>
Created by FontForge 20161013 at Wed Mar 30 13:12:09 2005
 By ,,,
Font software Copyright 1991 Adobe Systems Incorporated. Typeface designs Copyright 1991 The Monotype Corporation. All rights reserved.
</metadata>
<defs>
<font id="PerpetuaTitlingMTStd-Lt" horiz-adv-x="500" >
  <font-face 
    font-family="Perpetua Titling MT Std Lt"
    font-weight="300"
    font-stretch="normal"
    units-per-em="1000"
    panose-1="2 2 4 3 5 4 5 2 3 4"
    ascent="725"
    descent="-275"
    x-height="719"
    cap-height="719"
    bbox="-31 -165 1011 960"
    underline-thickness="50"
    underline-position="-200"
    unicode-range="U+0020-FB02"
  />
<missing-glyph 
d="M12 0v665h475v-665h-475zM88 618l162 -243l161 243h-323zM60 575v-484l40 61l80 120l41 61zM440 575l-162 -242l162 -243v485zM411 48l-161 242l-162 -242h323z" />
    <glyph glyph-name="fi" unicode="fi" horiz-adv-x="812" 
d="M34 711v8h432v-109h-8q-1 14 -5.5 27t-14.5 27.5t-30.5 23.5t-48.5 9h-173v-326h161q25 0 41.5 5.5t25 17t12 22t5.5 26.5h8v-163h-8q-2 19 -7.5 33t-25 25.5t-51.5 11.5h-161v-262q0 -36 20.5 -57.5t49.5 -21.5h10v-8h-232v8h10q29 0 48.5 22t19.5 57v544q0 46 -21 63
t-47 17h-10zM775 719v-8q-33 0 -55 -18t-22 -60v-546q0 -42 23.5 -60.5t53.5 -18.5v-8h-228v8q31 0 54 18.5t23 60.5v546q0 78 -77 78v8h228z" />
    <glyph glyph-name="fl" unicode="fl" horiz-adv-x="1010" 
d="M34 711v8h432v-109h-8q-1 14 -5.5 27t-14.5 27.5t-30.5 23.5t-48.5 9h-173v-326h161q25 0 41.5 5.5t25 17t12 22t5.5 26.5h8v-163h-8q-2 19 -7.5 33t-25 25.5t-51.5 11.5h-161v-262q0 -36 20.5 -57.5t49.5 -21.5h10v-8h-232v8h10q29 0 48.5 22t19.5 57v544q0 46 -21 63
t-47 17h-10zM547 8h10q27 0 47 20.5t20 58.5v543q0 79 -77 81v8h230v-8q-77 -3 -77 -81v-525q0 -47 23.5 -65t76.5 -18h62q60 0 85 20.5t47 75.5h8l-27 -118h-428v8z" />
    <glyph glyph-name=".notdef" 
d="M12 0v665h475v-665h-475zM88 618l162 -243l161 243h-323zM60 575v-484l40 61l80 120l41 61zM440 575l-162 -242l162 -243v485zM411 48l-161 242l-162 -242h323z" />
    <glyph glyph-name=".null" horiz-adv-x="0" 
 />
    <glyph glyph-name="nonmarkingreturn" horiz-adv-x="333" 
 />
    <glyph glyph-name="space" unicode=" " horiz-adv-x="250" 
 />
    <glyph glyph-name="exclam" unicode="!" horiz-adv-x="167" 
d="M87 170h-6q-4 26 -11 117q0 36 -24 279q-5 25 -5 66q0 76 42 76q39 0 39 -68l-4 -76q-6 -55 -10 -135l-12 -144q-8 -92 -9 -115zM83 -19q-19 0 -31.5 12.5t-12.5 31.5t12.5 32t31.5 13t32 -13t13 -32t-13 -31.5t-32 -12.5z" />
    <glyph glyph-name="quotedbl" unicode="&#x22;" 
d="M12 0v665h475v-665h-475zM88 618l162 -243l161 243h-323zM60 575v-484l40 61l80 120l41 61zM440 575l-162 -242l162 -243v485zM411 48l-161 242l-162 -242h323z" />
    <glyph glyph-name="numbersign" unicode="#" 
d="M12 0v665h475v-665h-475zM88 618l162 -243l161 243h-323zM60 575v-484l40 61l80 120l41 61zM440 575l-162 -242l162 -243v485zM411 48l-161 242l-162 -242h323z" />
    <glyph glyph-name="dollar" unicode="$" horiz-adv-x="542" 
d="M289 -60h-43v48q-51 0 -84 9q-59 16 -71 16q-23 0 -23 -18h-7v180h7q3 -23 7 -41.5t16 -41.5t30 -39t50 -28t75 -14v334q-112 58 -153 104t-41 107q0 14 1.5 27.5t12.5 41t29.5 48t57.5 38.5t93 23v50h43v-50q44 -6 110 -22q16 -4 29 -4q16 0 20 17h7v-174h-7
q-28 139 -159 155v-300q55 -30 85 -48.5t63.5 -47t48 -61t14.5 -73.5q0 -15 -2 -30t-13.5 -44t-32 -50.5t-63 -40.5t-100.5 -23v-48zM289 322v-311q72 1 111 40t39 91q0 60 -40.5 101t-109.5 79zM246 430v278q-64 -9 -98.5 -47.5t-34.5 -81.5q0 -45 31 -76.5t102 -72.5z" />
    <glyph glyph-name="percent" unicode="%" horiz-adv-x="865" 
d="M317 542q0 69 -32.5 122.5t-86.5 53.5q-39 0 -67.5 -32t-39 -70t-10.5 -73q0 -69 33.5 -122t84.5 -53t84.5 53.5t33.5 120.5zM378 542q0 -84 -53.5 -140t-124.5 -56q-69 0 -124.5 53.5t-55.5 143.5q0 94 56.5 145.5t123.5 51.5q69 0 123.5 -54.5t54.5 -143.5zM661 740
l-416 -745h-34l416 745h34zM844 186q0 -84 -54 -140t-125 -56q-68 0 -123.5 53.5t-55.5 142.5q0 94 56.5 146t123.5 52q69 0 123.5 -54.5t54.5 -143.5zM783 186q0 69 -32 122.5t-87 53.5q-56 0 -86.5 -58.5t-30.5 -116.5q0 -69 33.5 -122t84.5 -53t84.5 53.5t33.5 120.5z
" />
    <glyph glyph-name="ampersand" unicode="&#x26;" horiz-adv-x="729" 
d="M703 471v-8q-51 -2 -78 -30t-56 -102q-44 -112 -84 -168q7 -6 46.5 -42.5t46.5 -42.5q36 -31 65.5 -47t43.5 -19t33 -4v-8h-152q-84 67 -125 106q-9 -12 -24 -27t-44 -39t-69 -39.5t-82 -15.5q-82 0 -137.5 54.5t-55.5 128.5q0 124 146 218l-7 7q-29 33 -46 55t-33 57
t-16 67q0 68 53 118t131 50q68 0 110 -38t42 -93q0 -34 -16 -65.5t-45.5 -58.5t-51 -42.5t-51.5 -33.5q25 -29 78 -83l71 -74q38 -40 73 -73q26 41 56 114.5t30 119.5q0 16 -5 27t-15 15.5t-17.5 6t-18.5 1.5v8h204zM234 426q24 16 40.5 28.5t36 33t29.5 45t10 52.5
q0 49 -33.5 87.5t-86.5 38.5q-48 0 -74 -28.5t-26 -68.5q0 -41 32 -93.5t72 -94.5zM190 369q-101 -67 -101 -160q0 -72 54.5 -121t122.5 -49q37 0 73 16.5t51.5 30t37.5 35.5q-130 123 -238 248z" />
    <glyph glyph-name="quotesingle" unicode="'" 
d="M12 0v665h475v-665h-475zM88 618l162 -243l161 243h-323zM60 575v-484l40 61l80 120l41 61zM440 575l-162 -242l162 -243v485zM411 48l-161 242l-162 -242h323z" />
    <glyph glyph-name="parenleft" unicode="(" horiz-adv-x="302" 
d="M298 740l4 -5q-90 -74 -133 -172.5t-43 -247.5q0 -145 42.5 -244t133.5 -173l-4 -6q-41 28 -79 62.5t-80.5 87t-68 124t-25.5 150.5q0 121 65 232q35 59 74 97.5t114 94.5z" />
    <glyph glyph-name="parenright" unicode=")" horiz-adv-x="302" 
d="M4 -108l-4 6q91 74 133.5 173t42.5 244q0 149 -43 247.5t-133 172.5l4 5q75 -56 114 -94.5t74 -97.5q65 -109 65 -232q0 -79 -25.5 -150.5t-68 -124t-80.5 -87t-79 -62.5z" />
    <glyph glyph-name="asterisk" unicode="*" horiz-adv-x="427" 
d="M149 485l-44 -42q-24 -24 -42 -24q-11 0 -21.5 9.5t-10.5 23.5q0 17 17 26.5t72 25.5q41 12 74 28q-2 6 0 12q-28 15 -112 38q-51 14 -51 42q0 13 9.5 23t20.5 10q19 0 56 -37q45 -45 81 -67q5 4 11 5q-8 56 -24 117q-5 25 -5 31q0 12 8.5 23t25.5 11q14 0 22.5 -10
t8.5 -24q0 -17 -4 -34l-14 -50q-9 -36 -9 -64q5 -1 10 -5q27 16 75 63q39 40 59 40q4 0 10.5 -2t14 -10t7.5 -21q0 -15 -10.5 -23.5t-39.5 -16.5q-79 -23 -112 -39q2 -6 0 -12q39 -17 111 -38q52 -15 52 -43q0 -14 -11 -23t-21 -9q-13 0 -29 12.5t-52 48.5q-28 28 -54 44
q-5 -4 -10 -5q0 -26 9 -58q19 -76 19 -94q0 -12 -8 -22.5t-25 -10.5q-13 0 -22 9t-9 25q0 13 5 38q1 3 6 23.5t6 23.5q8 33 10 66q-6 1 -11 5q-25 -16 -49 -39z" />
    <glyph glyph-name="plus" unicode="+" horiz-adv-x="667" 
d="M594 260h-245v-250h-32v250h-244v32h244v251h32v-251h245v-32z" />
    <glyph glyph-name="comma" unicode="," horiz-adv-x="146" 
d="M30 -145v6l1 1q53 43 56 111q0 27 -8 27q-1 0 -7 -2l-8 -2q-19 0 -32 12t-13 32q0 19 13.5 31.5t32.5 12.5q24 0 43 -24.5t19 -60.5q0 -99 -97 -144z" />
    <glyph glyph-name="hyphen" unicode="-" horiz-adv-x="313" 
d="M27 377h258v-40h-258v40z" />
    <glyph glyph-name="period" unicode="." horiz-adv-x="146" 
d="M72 -19q-19 0 -31.5 12.5t-12.5 31.5t12.5 32t31.5 13t32 -13t13 -32t-13 -31.5t-32 -12.5z" />
    <glyph glyph-name="slash" unicode="/" horiz-adv-x="313" 
d="M278 719l-221 -719h-23l221 719h23z" />
    <glyph glyph-name="zero" unicode="0" horiz-adv-x="667" 
d="M626 359q0 -162 -88.5 -270t-204.5 -108q-52 0 -103.5 25.5t-94 71.5t-69 119.5t-26.5 161.5q0 93 27.5 168.5t71.5 120.5t94 68.5t100 23.5q113 0 203 -105t90 -276zM543 359q0 86 -21.5 163.5t-71 132.5t-117.5 55q-51 0 -93.5 -36t-66.5 -91t-37 -113.5t-13 -110.5
q0 -61 13 -120.5t38 -111.5t66.5 -84t92.5 -32q85 0 147.5 104t62.5 244z" />
    <glyph glyph-name="one" unicode="1" horiz-adv-x="302" 
d="M115 86v482q0 48 -2.5 58.5t-15.5 10.5q-10 0 -62 -18v8q32 17 49.5 27.5t41.5 32.5t47 53h16v-654q0 -42 19.5 -60t59.5 -18v-8h-233v8q80 0 80 78z" />
    <glyph glyph-name="two" unicode="2" horiz-adv-x="563" 
d="M510 0h-470q41 35 129 125.5t121 135.5q110 150 110 246q0 82 -49 127t-115 45q-28 0 -56.5 -8.5t-61 -37.5t-48.5 -75h-15q5 28 20 57t40 58.5t66.5 48t92.5 18.5q95 0 149.5 -59t54.5 -138q0 -50 -22 -104t-50.5 -97t-79.5 -97t-85 -85.5t-90 -80.5l-16 -14h317
q30 0 47.5 12t33.5 39h8z" />
    <glyph glyph-name="three" unicode="3" 
d="M55 741h7q6 -15 27 -15q7 0 21 2l15 3q39 9 78 9q77 0 134.5 -48.5t57.5 -125.5q0 -28 -12 -65.5t-41 -64.5q-38 -35 -108 -51v-2q63 -4 108 -26t65.5 -54t29 -59.5t8.5 -53.5q0 -89 -68 -149t-160 -60q-98 0 -183 85v36q81 -82 172 -82q36 0 64 11t43.5 30.5t25.5 38
t13.5 41.5t4.5 33t1 20q0 103 -82 153q-31 19 -97 19h-66v26h36q86 0 130 46q41 42 41 121q0 71 -35.5 114.5t-94.5 43.5q-86 0 -128 -106h-7v130z" />
    <glyph glyph-name="four" unicode="4" horiz-adv-x="635" 
d="M413 738v-405h195v-44h-195v-202q0 -44 22.5 -61.5t53.5 -18.5v-7h-227v7q77 2 77 80v202h-320l367 449h27zM91 333h248v304h-2z" />
    <glyph glyph-name="five" unicode="5" 
d="M466 719l-10 -54h-246l-51 -296q37 7 70 7q86 0 144 -54.5t58 -133.5q0 -84 -61.5 -145.5t-159.5 -61.5q-53 0 -92 18t-85 55v36q73 -66 161 -66q76 0 113 47.5t37 111.5q0 74 -42.5 120.5t-114.5 46.5q-43 0 -106 -25l68 394h317z" />
    <glyph glyph-name="six" unicode="6" horiz-adv-x="573" 
d="M494 740v-17q-34 -6 -59.5 -13t-63.5 -23t-74 -46t-66 -72q-87 -120 -93 -295l2 -2q53 106 176 106q92 0 147 -56.5t55 -136.5q0 -86 -63.5 -145t-163.5 -59q-62 0 -110 24t-75 64.5t-40.5 87.5t-13.5 98q0 26 5 59.5t19 85t47 108.5t80 104q106 106 291 128zM138 236
q0 -41 8.5 -80.5t27 -74.5t52 -56.5t76.5 -21.5q58 0 97.5 41t39.5 118q0 75 -43 128t-109 53q-41 0 -82 -24.5t-67 -82.5z" />
    <glyph glyph-name="seven" unicode="7" horiz-adv-x="552" 
d="M524 719l-318 -731h-71l294 677h-201q-78 0 -118 -18.5t-63 -67.5h-8l22 140h463z" />
    <glyph glyph-name="eight" unicode="8" horiz-adv-x="542" 
d="M326 382l14 -9q74 -47 101 -76q52 -55 52 -123q0 -79 -63.5 -136t-173.5 -57q-104 0 -155.5 52t-51.5 114q0 67 46.5 115.5t132.5 89.5q-91 52 -123 98.5t-32 97.5q0 73 54.5 132.5t157.5 59.5q93 0 144.5 -51t51.5 -118q0 -35 -13 -65t-29 -48.5t-41.5 -36.5t-38.5 -24
t-33 -15zM236 435l57 -34q7 -3 11 -6q54 29 80 65.5t26 100.5q0 77 -39.5 115.5t-94.5 38.5t-95 -34.5t-40 -101.5q0 -88 95 -144zM250 340q-26 -15 -42 -27t-38.5 -35t-33.5 -55t-11 -72q0 -67 35.5 -109t107.5 -42q74 0 115 41.5t41 104.5q0 28 -8.5 51t-19 39t-36.5 35.5
t-44 30.5t-59 34q-1 0 -4 2z" />
    <glyph glyph-name="nine" unicode="9" horiz-adv-x="563" 
d="M69 -19v17q34 6 59.5 13t63.5 23t74 46t66 72q87 120 93 295l-2 2q-53 -106 -176 -106q-92 0 -147 56.5t-55 136.5q0 86 63.5 145t163.5 59q62 0 110 -24t75 -64.5t40.5 -87.5t13.5 -98q0 -26 -5 -59.5t-19 -85t-47 -108.5t-80 -104q-106 -106 -291 -128zM425 485
q0 41 -8.5 80.5t-27 74.5t-52 56.5t-76.5 21.5q-58 0 -97.5 -41t-39.5 -118q0 -75 43 -128t109 -53q41 0 82 24.5t67 82.5z" />
    <glyph glyph-name="colon" unicode=":" horiz-adv-x="146" 
d="M73 -19q-19 0 -31.5 12.5t-12.5 31.5t12.5 32t31.5 13t32 -13t13 -32t-13 -31.5t-32 -12.5zM73 299q-19 0 -31.5 12.5t-12.5 31.5t12.5 32t31.5 13t32 -13t13 -32t-13 -31.5t-32 -12.5z" />
    <glyph glyph-name="semicolon" unicode=";" horiz-adv-x="146" 
d="M30 -145v6l1 1q53 43 56 111q0 27 -8 27q-1 0 -7 -2l-8 -2q-19 0 -32 12t-13 32q0 19 13.5 31.5t32.5 12.5q24 0 43 -24.5t19 -60.5q0 -99 -97 -144zM70 299q-19 0 -31.5 12.5t-12.5 31.5t12.5 32t31.5 13t32 -13t13 -32t-13 -31.5t-32 -12.5z" />
    <glyph glyph-name="less" unicode="&#x3c;" horiz-adv-x="667" 
d="M594 29l-521 237v20l521 237v-38l-474 -209l474 -209v-38z" />
    <glyph glyph-name="equal" unicode="=" horiz-adv-x="667" 
d="M594 363h-521v32h521v-32zM594 150h-521v32h521v-32z" />
    <glyph glyph-name="greater" unicode="&#x3e;" horiz-adv-x="667" 
d="M594 266l-521 -237v38l474 209l-474 209v38l521 -237v-20z" />
    <glyph glyph-name="question" unicode="?" horiz-adv-x="302" 
d="M18 588l-6 3q8 21 15 34.5t23 35.5t40 34t55 12q58 0 94.5 -39.5t36.5 -97.5q0 -45 -18.5 -80.5t-74.5 -110.5q-43 -59 -59 -100.5t-14 -110.5h-7q-3 18 -3 54q0 46 10 77.5t39 75.5q35 53 49.5 85.5t14.5 74.5q0 56 -33 85t-71 29q-22 0 -49 -13t-42 -48zM116 -19
q-19 0 -31.5 12.5t-12.5 31.5t12.5 32t31.5 13t32 -13t13 -32t-13 -31.5t-32 -12.5z" />
    <glyph glyph-name="at" unicode="@" 
d="M12 0v665h475v-665h-475zM88 618l162 -243l161 243h-323zM60 575v-484l40 61l80 120l41 61zM440 575l-162 -242l162 -243v485zM411 48l-161 242l-162 -242h323z" />
    <glyph glyph-name="A" unicode="A" horiz-adv-x="688" 
d="M364 728l215 -616q13 -36 24.5 -57.5t25 -31t22 -12t25.5 -3.5v-8h-235v8h5q22 0 33.5 1.5t24 11.5t12.5 31q0 16 -9 44q-2 4 -2 6l-64 191h-249l-57 -177q-12 -36 -12 -58q0 -30 15.5 -40t42.5 -10v-8h-169v8q36 3 57.5 27t38.5 74l203 619h53zM200 319h229l-117 341h-2
z" />
    <glyph glyph-name="B" unicode="B" horiz-adv-x="573" 
d="M304 0h-269v8h10q27 0 47 19.5t20 59.5v543q0 38 -18.5 59.5t-49.5 21.5h-9v8h235q92 0 150 -49.5t58 -119.5q0 -124 -155 -165v-2q110 -13 161 -61q59 -54 59 -135q0 -57 -29 -97t-66 -61q-52 -29 -144 -29zM186 389h47q58 0 82 12q14 7 28.5 17.5t33 43t18.5 74.5
q0 67 -41 114t-104 47q-28 0 -64 -11v-297zM260 367h-74v-259q0 -19 2 -30t10.5 -26t31.5 -22.5t60 -7.5q99 0 141 66q29 45 29 102q0 82 -54 129.5t-146 47.5z" />
    <glyph glyph-name="C" unicode="C" horiz-adv-x="719" 
d="M685 558h-8q-10 54 -53.5 92t-92 53t-94.5 15q-128 0 -211 -100.5t-83 -258.5q0 -156 82.5 -252.5t214.5 -96.5q54 0 119.5 22t118.5 74v-28q-64 -50 -118 -73.5t-135 -23.5q-114 0 -200.5 54.5t-129 137.5t-42.5 177q0 161 112.5 275.5t271.5 114.5q66 0 136 -19l51 -14
q15 -3 25 -3q18 0 25 5.5t10 20.5h8z" />
    <glyph glyph-name="D" unicode="D" horiz-adv-x="781" 
d="M37 711v8h277q197 0 310 -113q106 -106 106 -260q0 -97 -44.5 -174.5t-124.5 -125.5q-76 -46 -201 -46h-323v8h10q33 0 50 25t17 54v543q0 41 -19 61t-48 20h-10zM188 685v-570q0 -60 29 -76.5t109 -16.5q78 0 132 15.5t104 68.5q82 88 82 235q0 141 -73 238
q-89 118 -264 118q-47 0 -119 -12z" />
    <glyph glyph-name="E" unicode="E" horiz-adv-x="510" 
d="M35 711v8h429v-113h-7q0 91 -121 91h-150v-327h132q98 0 105 71h7v-163h-7q-5 28 -19 44t-24 19.5t-19 3.5q-18 3 -37 3h-138v-255q0 -71 62 -71h107q57 0 84.5 23t42.5 68h7l-25 -113h-429v8h10q22 0 44.5 18.5t22.5 60.5v542q0 32 -15.5 57t-51.5 25h-10z" />
    <glyph glyph-name="F" unicode="F" horiz-adv-x="510" 
d="M34 711v8h432v-109h-8q-1 14 -5.5 27t-14.5 27.5t-30.5 23.5t-48.5 9h-173v-326h161q25 0 41.5 5.5t25 17t12 22t5.5 26.5h8v-163h-8q-2 19 -7.5 33t-25 25.5t-51.5 11.5h-161v-262q0 -36 20.5 -57.5t49.5 -21.5h10v-8h-232v8h10q29 0 48.5 22t19.5 57v544q0 46 -21 63
t-47 17h-10z" />
    <glyph glyph-name="G" unicode="G" horiz-adv-x="781" 
d="M694 570h-8q-16 71 -83 109.5t-154 38.5q-35 0 -70.5 -7t-80.5 -29.5t-78.5 -58t-57 -101t-23.5 -150.5q0 -80 17.5 -145t55 -116.5t103 -79.5t154.5 -28q42 0 70.5 4t44.5 9.5t24 17t10 21t2 26.5v132q0 25 -6 41t-19 24t-25 11.5t-31 5.5v8h234v-8q-48 -5 -63.5 -25
t-15.5 -60v-200q-106 -29 -222 -29q-235 0 -347 153q-72 100 -72 224q0 73 27 141t76.5 122t125 86.5t165.5 32.5q57 0 167 -23q26 -6 37 -6q24 0 35 24h8v-165z" />
    <glyph glyph-name="H" unicode="H" horiz-adv-x="781" 
d="M597 390v241q0 35 -19 57.5t-59 22.5v8h229v-8q-40 0 -58.5 -22.5t-18.5 -57.5v-544q0 -79 77 -79v-8h-229v8q36 0 57 19.5t21 58.5v282h-412v-281q0 -38 21 -58.5t57 -20.5v-8h-229v8q38 0 57.5 21t19.5 58v544q0 80 -77 80v8h229v-8q-78 0 -78 -80v-241h412z" />
    <glyph glyph-name="I" unicode="I" horiz-adv-x="302" 
d="M265 719v-8q-33 0 -55 -18t-22 -60v-546q0 -42 23.5 -60.5t53.5 -18.5v-8h-228v8q31 0 54 18.5t23 60.5v546q0 78 -77 78v8h228z" />
    <glyph glyph-name="J" unicode="J" horiz-adv-x="354" 
d="M167 60v571q0 78 -77 80v8h227v-8q-32 -1 -54 -19.5t-22 -60.5v-590q0 -95 -45 -136.5t-103 -41.5q-42 0 -69.5 17t-54.5 47l5 5q42 -33 90 -33q29 0 50 12t31 27.5t15.5 41.5t6 41t0.5 39z" />
    <glyph glyph-name="K" unicode="K" horiz-adv-x="667" 
d="M630 719v-8q-67 -4 -100 -34q-5 -5 -14 -13t-15.5 -14t-7.5 -7l-245 -242l293 -331q24 -27 47.5 -41t35.5 -16.5t37 -4.5v-8h-155l-322 364v-277q0 -77 77 -79v-8h-228v8q77 2 77 79v546q0 75 -77 78v8h228v-8q-77 -2 -77 -78v-266l276 276q0 1 1 1q1 1 1 2q23 21 23 36
q0 6 -2 10t-6 7t-7.5 5t-10 3.5t-9.5 2t-10.5 1t-8.5 0.5v8h199z" />
    <glyph glyph-name="L" unicode="L" 
d="M37 8h10q27 0 47 20.5t20 58.5v543q0 79 -77 81v8h230v-8q-77 -3 -77 -81v-525q0 -47 23.5 -65t76.5 -18h62q60 0 85 20.5t47 75.5h8l-27 -118h-428v8z" />
    <glyph glyph-name="M" unicode="M" horiz-adv-x="854" 
d="M799 719v-8q-36 -4 -49 -14q-17 -13 -21 -24t-5 -39q-2 -4 0 -9l25 -534q1 -15 3 -25.5t9 -25.5t25 -23.5t45 -8.5v-8h-233v8q46 4 62 26.5t14 67.5l-25 553h-2l-254 -655l-240 631h-2l-26 -510q-3 -62 14 -84.5t60 -28.5v-8h-181v8q27 1 44 10t25.5 28.5t11 36.5t4.5 48
l29 527q0 5 -12.5 18.5t-24.5 19.5q-21 12 -63 15v8h167l223 -588l226 588h151z" />
    <glyph glyph-name="N" unicode="N" horiz-adv-x="813" 
d="M781 719v-8q-42 -5 -59.5 -22.5t-17.5 -75.5v-631h-5l-552 616v-442q0 -97 17 -121q18 -25 63 -27v-8h-180v8q46 2 62 30t16 117v469l-24 27q-22 25 -41.5 38.5t-28 15.5t-28.5 6v8h135l544 -609v464q0 31 -1 47t-5 36t-12.5 29.5t-24 16.5t-39.5 8v8h181z" />
    <glyph glyph-name="O" unicode="O" horiz-adv-x="865" 
d="M812 359q0 -155 -109.5 -266.5t-268.5 -111.5q-161 0 -271.5 112t-110.5 269q0 160 113 269t268 109q98 0 184 -46.5t140.5 -135t54.5 -199.5zM726 357q0 90 -22.5 158.5t-55 106t-75.5 60.5t-76 29.5t-64 6.5q-34 0 -69.5 -8t-77.5 -32t-73.5 -62t-53 -104t-21.5 -152
q0 -76 17 -137.5t45.5 -102t67.5 -67.5t80 -38.5t86 -11.5q51 0 98.5 17t93 55t73 110.5t27.5 171.5z" />
    <glyph glyph-name="P" unicode="P" horiz-adv-x="542" 
d="M38 711v8h236q113 0 176 -58t63 -138q0 -81 -61 -137.5t-186 -56.5q-20 0 -77 6v-248q0 -76 78 -79v-8h-229v8q77 2 77 79v544q0 15 -2.5 27t-8 20t-10.5 13.5t-13.5 9t-12.5 5.5t-11.5 3.5t-8.5 1.5h-10zM189 694v-339q37 -7 74 -7q167 0 167 169q0 80 -42.5 131.5
t-129.5 51.5q-37 0 -69 -6z" />
    <glyph glyph-name="Q" unicode="Q" horiz-adv-x="865" 
d="M840 -9l11 -7q-22 -25 -37 -40.5t-41.5 -37t-54.5 -32.5t-58 -11q-52 0 -138 40q-83 39 -165 82l-12 6q-24 7 -39 12t-43 18t-49.5 28t-47.5 41t-48 58q-66 97 -66 214q0 162 114 270t268 108q157 0 267.5 -111t110.5 -268q0 -164 -119 -277q-32 -31 -67.5 -51.5
t-56.5 -27.5t-54 -15v-2q3 0 21 -10q45 -26 77.5 -38t45.5 -13.5t37 -1.5q43 0 71 14t67 48l3 2zM726 356q0 86 -21 153t-52 105.5t-72.5 63t-77 32.5t-70.5 8q-37 0 -73.5 -9t-78 -33.5t-72 -62.5t-51 -102.5t-20.5 -146.5q0 -190 97 -284q79 -76 201 -76q130 0 207 89
q83 96 83 263z" />
    <glyph glyph-name="R" unicode="R" horiz-adv-x="656" 
d="M44 709h-10v10h249q60 0 103.5 -19t65.5 -49.5t31.5 -60t9.5 -59.5q0 -61 -38.5 -110t-112.5 -62v-2q64 -31 119 -124l65 -110q30 -51 57 -78.5t38 -31t28 -5.5v-8h-131q-1 1 -11.5 15t-19.5 27q-4 5 -10.5 15t-10.5 17l-5 7l-86 142q-27 44 -53.5 72t-53 38.5t-43 13.5
t-40.5 3v-263q0 -76 78 -79v-8h-229v8q77 2 77 79v544q0 42 -21 60t-46 18zM185 369h41q184 0 184 156q0 30 -8.5 58t-27 55.5t-56 44.5t-88.5 17q-25 0 -45 -4v-327z" />
    <glyph glyph-name="S" unicode="S" horiz-adv-x="469" 
d="M406 581h-8q-7 52 -46 91.5t-102 39.5t-102 -42.5t-39 -107.5q0 -66 35.5 -101t129.5 -86q30 -17 46 -26.5t43 -30t41 -39.5t25.5 -48t11.5 -61q0 -73 -55.5 -129.5t-158.5 -56.5q-76 0 -148 36q-15 5 -20 5q-3 0 -6 -1t-4.5 -3t-3 -4.5t-3 -6.5t-2 -7t-1.5 -8.5t-2 -8.5
h-8v180h8q17 -79 68 -119.5t124 -40.5q42 0 72.5 12.5t45.5 33.5t21.5 41.5t6.5 41.5q0 60 -37 98.5t-112 78.5q-46 24 -68.5 38.5t-54.5 42t-46 62t-14 78.5q0 80 60 140t155 60q46 0 97 -16q8 -4 21 -4q16 0 22 22h8v-154z" />
    <glyph glyph-name="T" unicode="T" horiz-adv-x="667" 
d="M650 579h-8q-3 37 -16 61.5t-34 34.5t-38 13t-41 3h-143v-604q0 -76 78 -79v-8h-229v8q77 2 77 79v604h-143q-24 0 -41 -3t-38 -13t-34 -34.5t-16 -61.5h-8v176h8q12 -21 28.5 -28.5t51.5 -7.5h466q46 0 72 36h8v-176z" />
    <glyph glyph-name="U" unicode="U" horiz-adv-x="781" 
d="M746 0h-151v119l-2 2q-31 -73 -93.5 -106.5t-130.5 -33.5q-76 0 -137.5 36.5t-90.5 90.5q-31 58 -31 165v358q0 15 -1.5 24t-7.5 23t-23 22.5t-43 10.5v8h226v-8q-77 -9 -77 -80v-352q0 -107 22 -159q23 -55 70 -85.5t107 -30.5q67 0 123 38q89 61 89 196v393
q0 13 -1.5 22t-8 23.5t-24 23.5t-44.5 11v8h230v-8q-78 -4 -78 -79v-545q0 -42 19 -57.5t58 -21.5v-8z" />
    <glyph glyph-name="V" unicode="V" horiz-adv-x="688" 
d="M677 719v-8q-39 -5 -59.5 -32.5t-45.5 -89.5q-3 -3 -5 -12l-208 -596h-7l-245 645q0 2 -2 6q-28 80 -95 79v8h236v-8q-44 -4 -57 -21q-9 -14 -9 -33q0 -9 8 -36q0 -1 1 -3t1.5 -3.5t0.5 -2.5l189 -505h2l162 470q17 49 17 73q0 21 -5 33.5t-17 18t-19.5 7t-23.5 2.5v8
h181z" />
    <glyph glyph-name="W" unicode="W" horiz-adv-x="1021" 
d="M1011 719v-8q-32 -6 -57 -34t-50 -102l-202 -594h-7l-184 594h-2l-200 -594h-7l-205 655q-10 34 -29.5 52t-30 20t-27.5 3v8h223v-8q-59 -4 -59 -56q0 -17 8 -44l152 -486h2l163 486l-7 22q-23 75 -90 78v8h230v-8q-28 0 -43 -14.5t-17 -24t-2 -17.5q0 -23 7 -44
l150 -486h2l153 450q18 54 18 84q0 18 -4 28.5t-14.5 15.5t-18 6t-24.5 2v8h172z" />
    <glyph glyph-name="X" unicode="X" horiz-adv-x="729" 
d="M677 719v-8q-56 -6 -103 -66q-35 -43 -40 -50l-153 -209l182 -272q26 -38 48.5 -61.5t44 -32.5t32.5 -10.5t31 -1.5v-8h-271v8q25 0 38.5 11.5t15.5 19t2 14.5q0 18 -20 51l-146 220l-147 -203q-28 -37 -28 -66q0 -7 1.5 -15t17 -20.5t43.5 -11.5v-8h-215v8q64 -1 107 52
q31 37 33 40l175 242l-178 269q-23 34 -42 55.5t-37 30t-26.5 10.5t-26.5 4v8h259v-8q-60 -3 -60 -45q0 -27 25 -65l130 -196l144 196q31 43 31 68q0 4 -1.5 9t-5.5 13t-16.5 13.5t-31.5 6.5v8h188z" />
    <glyph glyph-name="Y" unicode="Y" horiz-adv-x="688" 
d="M677 719v-8q-71 -1 -127 -84l-168 -253v-288q0 -38 23 -57.5t56 -20.5v-8h-228v8q75 2 75 78v276l-183 274q-30 45 -53.5 59.5t-61.5 15.5v8h255v-8q-17 -1 -29.5 -5.5t-18.5 -10t-9 -13t-3.5 -11t-0.5 -6.5q0 -15 19 -44l150 -222l133 200q30 45 30 69q0 7 -1.5 12.5
t-4 9.5t-6 7.5t-6.5 5.5t-7.5 3.5t-6.5 2l-6 1.5l-4 1v8h183z" />
    <glyph glyph-name="Z" unicode="Z" horiz-adv-x="646" 
d="M511 692h-344q-63 0 -94.5 -22.5t-41.5 -81.5h-8v131h589v-14l-498 -678h345q44 0 73.5 6.5t47.5 22.5t26 28t19 36h8l-34 -120h-585v15z" />
    <glyph glyph-name="bracketleft" unicode="[" horiz-adv-x="302" 
d="M91 719h211v-9h-60q-30 0 -49.5 -9t-26.5 -25t-9 -26.5t-2 -25.5v-624q0 -51 24 -68t68 -17h55v-8h-211v812z" />
    <glyph glyph-name="backslash" unicode="\" horiz-adv-x="313" 
d="M255 0l-221 719h23l221 -719h-23z" />
    <glyph glyph-name="bracketright" unicode="]" horiz-adv-x="302" 
d="M211 719v-812h-211v8h55q48 0 70 19.5t22 65.5v624q0 17 -2.5 29.5t-10.5 26.5t-26.5 22t-47.5 8h-60v9h211z" />
    <glyph glyph-name="asciicircum" unicode="^" 
d="M12 0v665h475v-665h-475zM88 618l162 -243l161 243h-323zM60 575v-484l40 61l80 120l41 61zM440 575l-162 -242l162 -243v485zM411 48l-161 242l-162 -242h323z" />
    <glyph glyph-name="underscore" unicode="_" 
d="M506 -125h-512v50h512v-50z" />
    <glyph glyph-name="grave" unicode="`" horiz-adv-x="333" 
d="M133 947l96 -163h-18l-139 163h61z" />
    <glyph glyph-name="a" unicode="a" horiz-adv-x="688" 
d="M364 728l215 -616q13 -36 24.5 -57.5t25 -31t22 -12t25.5 -3.5v-8h-235v8h5q22 0 33.5 1.5t24 11.5t12.5 31q0 16 -9 44q-2 4 -2 6l-64 191h-249l-57 -177q-12 -36 -12 -58q0 -30 15.5 -40t42.5 -10v-8h-169v8q36 3 57.5 27t38.5 74l203 619h53zM200 319h229l-117 341h-2
z" />
    <glyph glyph-name="b" unicode="b" horiz-adv-x="573" 
d="M304 0h-269v8h10q27 0 47 19.5t20 59.5v543q0 38 -18.5 59.5t-49.5 21.5h-9v8h235q92 0 150 -49.5t58 -119.5q0 -124 -155 -165v-2q110 -13 161 -61q59 -54 59 -135q0 -57 -29 -97t-66 -61q-52 -29 -144 -29zM186 389h47q58 0 82 12q14 7 28.5 17.5t33 43t18.5 74.5
q0 67 -41 114t-104 47q-28 0 -64 -11v-297zM260 367h-74v-259q0 -19 2 -30t10.5 -26t31.5 -22.5t60 -7.5q99 0 141 66q29 45 29 102q0 82 -54 129.5t-146 47.5z" />
    <glyph glyph-name="c" unicode="c" horiz-adv-x="719" 
d="M685 558h-8q-10 54 -53.5 92t-92 53t-94.5 15q-128 0 -211 -100.5t-83 -258.5q0 -156 82.5 -252.5t214.5 -96.5q54 0 119.5 22t118.5 74v-28q-64 -50 -118 -73.5t-135 -23.5q-114 0 -200.5 54.5t-129 137.5t-42.5 177q0 161 112.5 275.5t271.5 114.5q66 0 136 -19l51 -14
q15 -3 25 -3q18 0 25 5.5t10 20.5h8z" />
    <glyph glyph-name="d" unicode="d" horiz-adv-x="781" 
d="M37 711v8h277q197 0 310 -113q106 -106 106 -260q0 -97 -44.5 -174.5t-124.5 -125.5q-76 -46 -201 -46h-323v8h10q33 0 50 25t17 54v543q0 41 -19 61t-48 20h-10zM188 685v-570q0 -60 29 -76.5t109 -16.5q78 0 132 15.5t104 68.5q82 88 82 235q0 141 -73 238
q-89 118 -264 118q-47 0 -119 -12z" />
    <glyph glyph-name="e" unicode="e" horiz-adv-x="510" 
d="M35 711v8h429v-113h-7q0 91 -121 91h-150v-327h132q98 0 105 71h7v-163h-7q-5 28 -19 44t-24 19.5t-19 3.5q-18 3 -37 3h-138v-255q0 -71 62 -71h107q57 0 84.5 23t42.5 68h7l-25 -113h-429v8h10q22 0 44.5 18.5t22.5 60.5v542q0 32 -15.5 57t-51.5 25h-10z" />
    <glyph glyph-name="f" unicode="f" horiz-adv-x="510" 
d="M34 711v8h432v-109h-8q-1 14 -5.5 27t-14.5 27.5t-30.5 23.5t-48.5 9h-173v-326h161q25 0 41.5 5.5t25 17t12 22t5.5 26.5h8v-163h-8q-2 19 -7.5 33t-25 25.5t-51.5 11.5h-161v-262q0 -36 20.5 -57.5t49.5 -21.5h10v-8h-232v8h10q29 0 48.5 22t19.5 57v544q0 46 -21 63
t-47 17h-10z" />
    <glyph glyph-name="g" unicode="g" horiz-adv-x="781" 
d="M694 570h-8q-16 71 -83 109.5t-154 38.5q-35 0 -70.5 -7t-80.5 -29.5t-78.5 -58t-57 -101t-23.5 -150.5q0 -80 17.5 -145t55 -116.5t103 -79.5t154.5 -28q42 0 70.5 4t44.5 9.5t24 17t10 21t2 26.5v132q0 25 -6 41t-19 24t-25 11.5t-31 5.5v8h234v-8q-48 -5 -63.5 -25
t-15.5 -60v-200q-106 -29 -222 -29q-235 0 -347 153q-72 100 -72 224q0 73 27 141t76.5 122t125 86.5t165.5 32.5q57 0 167 -23q26 -6 37 -6q24 0 35 24h8v-165z" />
    <glyph glyph-name="h" unicode="h" horiz-adv-x="781" 
d="M597 390v241q0 35 -19 57.5t-59 22.5v8h229v-8q-40 0 -58.5 -22.5t-18.5 -57.5v-544q0 -79 77 -79v-8h-229v8q36 0 57 19.5t21 58.5v282h-412v-281q0 -38 21 -58.5t57 -20.5v-8h-229v8q38 0 57.5 21t19.5 58v544q0 80 -77 80v8h229v-8q-78 0 -78 -80v-241h412z" />
    <glyph glyph-name="i" unicode="i" horiz-adv-x="302" 
d="M265 719v-8q-33 0 -55 -18t-22 -60v-546q0 -42 23.5 -60.5t53.5 -18.5v-8h-228v8q31 0 54 18.5t23 60.5v546q0 78 -77 78v8h228z" />
    <glyph glyph-name="j" unicode="j" horiz-adv-x="354" 
d="M167 60v571q0 78 -77 80v8h227v-8q-32 -1 -54 -19.5t-22 -60.5v-590q0 -95 -45 -136.5t-103 -41.5q-42 0 -69.5 17t-54.5 47l5 5q42 -33 90 -33q29 0 50 12t31 27.5t15.5 41.5t6 41t0.5 39z" />
    <glyph glyph-name="k" unicode="k" horiz-adv-x="667" 
d="M630 719v-8q-67 -4 -100 -34q-5 -5 -14 -13t-15.5 -14t-7.5 -7l-245 -242l293 -331q24 -27 47.5 -41t35.5 -16.5t37 -4.5v-8h-155l-322 364v-277q0 -77 77 -79v-8h-228v8q77 2 77 79v546q0 75 -77 78v8h228v-8q-77 -2 -77 -78v-266l276 276q0 1 1 1q1 1 1 2q23 21 23 36
q0 6 -2 10t-6 7t-7.5 5t-10 3.5t-9.5 2t-10.5 1t-8.5 0.5v8h199z" />
    <glyph glyph-name="l" unicode="l" 
d="M37 8h10q27 0 47 20.5t20 58.5v543q0 79 -77 81v8h230v-8q-77 -3 -77 -81v-525q0 -47 23.5 -65t76.5 -18h62q60 0 85 20.5t47 75.5h8l-27 -118h-428v8z" />
    <glyph glyph-name="m" unicode="m" horiz-adv-x="854" 
d="M799 719v-8q-36 -4 -49 -14q-17 -13 -21 -24t-5 -39q-2 -4 0 -9l25 -534q1 -15 3 -25.5t9 -25.5t25 -23.5t45 -8.5v-8h-233v8q46 4 62 26.5t14 67.5l-25 553h-2l-254 -655l-240 631h-2l-26 -510q-3 -62 14 -84.5t60 -28.5v-8h-181v8q27 1 44 10t25.5 28.5t11 36.5t4.5 48
l29 527q0 5 -12.5 18.5t-24.5 19.5q-21 12 -63 15v8h167l223 -588l226 588h151z" />
    <glyph glyph-name="n" unicode="n" horiz-adv-x="813" 
d="M781 719v-8q-42 -5 -59.5 -22.5t-17.5 -75.5v-631h-5l-552 616v-442q0 -97 17 -121q18 -25 63 -27v-8h-180v8q46 2 62 30t16 117v469l-24 27q-22 25 -41.5 38.5t-28 15.5t-28.5 6v8h135l544 -609v464q0 31 -1 47t-5 36t-12.5 29.5t-24 16.5t-39.5 8v8h181z" />
    <glyph glyph-name="o" unicode="o" horiz-adv-x="865" 
d="M812 359q0 -155 -109.5 -266.5t-268.5 -111.5q-161 0 -271.5 112t-110.5 269q0 160 113 269t268 109q98 0 184 -46.5t140.5 -135t54.5 -199.5zM726 357q0 90 -22.5 158.5t-55 106t-75.5 60.5t-76 29.5t-64 6.5q-34 0 -69.5 -8t-77.5 -32t-73.5 -62t-53 -104t-21.5 -152
q0 -76 17 -137.5t45.5 -102t67.5 -67.5t80 -38.5t86 -11.5q51 0 98.5 17t93 55t73 110.5t27.5 171.5z" />
    <glyph glyph-name="p" unicode="p" horiz-adv-x="542" 
d="M38 711v8h236q113 0 176 -58t63 -138q0 -81 -61 -137.5t-186 -56.5q-20 0 -77 6v-248q0 -76 78 -79v-8h-229v8q77 2 77 79v544q0 15 -2.5 27t-8 20t-10.5 13.5t-13.5 9t-12.5 5.5t-11.5 3.5t-8.5 1.5h-10zM189 694v-339q37 -7 74 -7q167 0 167 169q0 80 -42.5 131.5
t-129.5 51.5q-37 0 -69 -6z" />
    <glyph glyph-name="q" unicode="q" horiz-adv-x="865" 
d="M840 -9l11 -7q-22 -25 -37 -40.5t-41.5 -37t-54.5 -32.5t-58 -11q-52 0 -138 40q-83 39 -165 82l-12 6q-24 7 -39 12t-43 18t-49.5 28t-47.5 41t-48 58q-66 97 -66 214q0 162 114 270t268 108q157 0 267.5 -111t110.5 -268q0 -164 -119 -277q-32 -31 -67.5 -51.5
t-56.5 -27.5t-54 -15v-2q3 0 21 -10q45 -26 77.5 -38t45.5 -13.5t37 -1.5q43 0 71 14t67 48l3 2zM726 356q0 86 -21 153t-52 105.5t-72.5 63t-77 32.5t-70.5 8q-37 0 -73.5 -9t-78 -33.5t-72 -62.5t-51 -102.5t-20.5 -146.5q0 -190 97 -284q79 -76 201 -76q130 0 207 89
q83 96 83 263z" />
    <glyph glyph-name="r" unicode="r" horiz-adv-x="656" 
d="M44 709h-10v10h249q60 0 103.5 -19t65.5 -49.5t31.5 -60t9.5 -59.5q0 -61 -38.5 -110t-112.5 -62v-2q64 -31 119 -124l65 -110q30 -51 57 -78.5t38 -31t28 -5.5v-8h-131q-1 1 -11.5 15t-19.5 27q-4 5 -10.5 15t-10.5 17l-5 7l-86 142q-27 44 -53.5 72t-53 38.5t-43 13.5
t-40.5 3v-263q0 -76 78 -79v-8h-229v8q77 2 77 79v544q0 42 -21 60t-46 18zM185 369h41q184 0 184 156q0 30 -8.5 58t-27 55.5t-56 44.5t-88.5 17q-25 0 -45 -4v-327z" />
    <glyph glyph-name="s" unicode="s" horiz-adv-x="469" 
d="M406 581h-8q-7 52 -46 91.5t-102 39.5t-102 -42.5t-39 -107.5q0 -66 35.5 -101t129.5 -86q30 -17 46 -26.5t43 -30t41 -39.5t25.5 -48t11.5 -61q0 -73 -55.5 -129.5t-158.5 -56.5q-76 0 -148 36q-15 5 -20 5q-3 0 -6 -1t-4.5 -3t-3 -4.5t-3 -6.5t-2 -7t-1.5 -8.5t-2 -8.5
h-8v180h8q17 -79 68 -119.5t124 -40.5q42 0 72.5 12.5t45.5 33.5t21.5 41.5t6.5 41.5q0 60 -37 98.5t-112 78.5q-46 24 -68.5 38.5t-54.5 42t-46 62t-14 78.5q0 80 60 140t155 60q46 0 97 -16q8 -4 21 -4q16 0 22 22h8v-154z" />
    <glyph glyph-name="t" unicode="t" horiz-adv-x="667" 
d="M650 579h-8q-3 37 -16 61.5t-34 34.5t-38 13t-41 3h-143v-604q0 -76 78 -79v-8h-229v8q77 2 77 79v604h-143q-24 0 -41 -3t-38 -13t-34 -34.5t-16 -61.5h-8v176h8q12 -21 28.5 -28.5t51.5 -7.5h466q46 0 72 36h8v-176z" />
    <glyph glyph-name="u" unicode="u" horiz-adv-x="781" 
d="M746 0h-151v119l-2 2q-31 -73 -93.5 -106.5t-130.5 -33.5q-76 0 -137.5 36.5t-90.5 90.5q-31 58 -31 165v358q0 15 -1.5 24t-7.5 23t-23 22.5t-43 10.5v8h226v-8q-77 -9 -77 -80v-352q0 -107 22 -159q23 -55 70 -85.5t107 -30.5q67 0 123 38q89 61 89 196v393
q0 13 -1.5 22t-8 23.5t-24 23.5t-44.5 11v8h230v-8q-78 -4 -78 -79v-545q0 -42 19 -57.5t58 -21.5v-8z" />
    <glyph glyph-name="v" unicode="v" horiz-adv-x="688" 
d="M677 719v-8q-39 -5 -59.5 -32.5t-45.5 -89.5q-3 -3 -5 -12l-208 -596h-7l-245 645q0 2 -2 6q-28 80 -95 79v8h236v-8q-44 -4 -57 -21q-9 -14 -9 -33q0 -9 8 -36q0 -1 1 -3t1.5 -3.5t0.5 -2.5l189 -505h2l162 470q17 49 17 73q0 21 -5 33.5t-17 18t-19.5 7t-23.5 2.5v8
h181z" />
    <glyph glyph-name="w" unicode="w" horiz-adv-x="1021" 
d="M1011 719v-8q-32 -6 -57 -34t-50 -102l-202 -594h-7l-184 594h-2l-200 -594h-7l-205 655q-10 34 -29.5 52t-30 20t-27.5 3v8h223v-8q-59 -4 -59 -56q0 -17 8 -44l152 -486h2l163 486l-7 22q-23 75 -90 78v8h230v-8q-28 0 -43 -14.5t-17 -24t-2 -17.5q0 -23 7 -44
l150 -486h2l153 450q18 54 18 84q0 18 -4 28.5t-14.5 15.5t-18 6t-24.5 2v8h172z" />
    <glyph glyph-name="x" unicode="x" horiz-adv-x="729" 
d="M677 719v-8q-56 -6 -103 -66q-35 -43 -40 -50l-153 -209l182 -272q26 -38 48.5 -61.5t44 -32.5t32.5 -10.5t31 -1.5v-8h-271v8q25 0 38.5 11.5t15.5 19t2 14.5q0 18 -20 51l-146 220l-147 -203q-28 -37 -28 -66q0 -7 1.5 -15t17 -20.5t43.5 -11.5v-8h-215v8q64 -1 107 52
q31 37 33 40l175 242l-178 269q-23 34 -42 55.5t-37 30t-26.5 10.5t-26.5 4v8h259v-8q-60 -3 -60 -45q0 -27 25 -65l130 -196l144 196q31 43 31 68q0 4 -1.5 9t-5.5 13t-16.5 13.5t-31.5 6.5v8h188z" />
    <glyph glyph-name="y" unicode="y" horiz-adv-x="688" 
d="M677 719v-8q-71 -1 -127 -84l-168 -253v-288q0 -38 23 -57.5t56 -20.5v-8h-228v8q75 2 75 78v276l-183 274q-30 45 -53.5 59.5t-61.5 15.5v8h255v-8q-17 -1 -29.5 -5.5t-18.5 -10t-9 -13t-3.5 -11t-0.5 -6.5q0 -15 19 -44l150 -222l133 200q30 45 30 69q0 7 -1.5 12.5
t-4 9.5t-6 7.5t-6.5 5.5t-7.5 3.5t-6.5 2l-6 1.5l-4 1v8h183z" />
    <glyph glyph-name="z" unicode="z" horiz-adv-x="646" 
d="M511 692h-344q-63 0 -94.5 -22.5t-41.5 -81.5h-8v131h589v-14l-498 -678h345q44 0 73.5 6.5t47.5 22.5t26 28t19 36h8l-34 -120h-585v15z" />
    <glyph glyph-name="braceleft" unicode="{" horiz-adv-x="302" 
d="M36 303v18q26 7 37 10.5t25 12t26 21.5q28 32 28 63q0 25 -7 60q-14 71 -14 91q0 66 44 120.5t127 67.5v-20q-53 -8 -81 -40.5t-28 -70.5q0 -18 7 -56q14 -76 14 -103q0 -12 -3 -25t-14 -40t-42.5 -53.5t-79.5 -45.5q56 -22 97 -64.5t41 -105.5q0 -23 -13 -88
q-9 -44 -9 -66q0 -87 111 -114v-17q-79 14 -125.5 67t-46.5 121q0 27 7 62q8 28 11 49q4 13 4 31q0 52 -36.5 80t-79.5 35z" />
    <glyph glyph-name="bar" unicode="|" horiz-adv-x="313" 
d="M168 719v-719h-23v719h23z" />
    <glyph glyph-name="braceright" unicode="}" horiz-adv-x="302" 
d="M266 322v-18q-36 -9 -53.5 -17t-35.5 -27q-28 -29 -28 -64q0 -19 8 -59q13 -68 13 -92q0 -65 -44 -119.5t-126 -67.5v19q53 8 80.5 41t27.5 71q0 25 -6 55q-15 76 -15 103q0 12 3 25.5t14 40.5t42.5 53.5t79.5 45.5q-56 22 -97 64t-41 106q0 23 13 88q9 44 9 65
q0 88 -110 114v18q78 -14 125 -67t47 -121q0 -29 -8 -62q-3 -23 -11 -50q-3 -15 -3 -30q0 -52 36.5 -80.5t79.5 -34.5z" />
    <glyph glyph-name="asciitilde" unicode="~" 
d="M12 0v665h475v-665h-475zM88 618l162 -243l161 243h-323zM60 575v-484l40 61l80 120l41 61zM440 575l-162 -242l162 -243v485zM411 48l-161 242l-162 -242h323z" />
    <glyph glyph-name="uni00A0" unicode="&#xa0;" horiz-adv-x="250" 
 />
    <glyph glyph-name="exclamdown" unicode="&#xa1;" horiz-adv-x="167" 
d="M80 519h6q4 -26 11 -117q0 -36 24 -279q5 -25 5 -66q0 -76 -42 -76q-39 0 -39 68q0 8 0.5 22t2 31t1.5 23q6 55 10 135l12 144q8 92 9 115zM84 708q19 0 31.5 -12.5t12.5 -31.5t-12.5 -32t-31.5 -13t-32 13t-13 32t13 31.5t32 12.5z" />
    <glyph glyph-name="cent" unicode="&#xa2;" horiz-adv-x="523" 
d="M435 453h23v-154h-19q-20 95 -99 123l-118 -367q5 -3 17 -10.5t18.5 -10.5t19.5 -6.5t28 -3.5q87 0 166 92v-32q-3 -3 -13.5 -15.5t-12.5 -14.5q-65 -65 -169 -65q-41 0 -71 10l-45 -136h-21l47 143q-19 7 -38 19t-43 35t-38.5 62.5t-14.5 88.5q0 104 67 173.5t159 69.5
q26 0 50 -3l41 126h21l-43 -132q3 -1 12 -3t19 -5q15 -5 26 -5q19 0 31 21zM206 71l114 357q-24 4 -34 4q-55 0 -101 -45.5t-46 -139.5q0 -50 15.5 -93t29 -60t22.5 -23z" />
    <glyph glyph-name="sterling" unicode="&#xa3;" horiz-adv-x="583" 
d="M532 581h-6q2 14 2 28q0 51 -29.5 79t-79.5 28q-76 0 -116 -47q-52 -57 -70 -144q-19 -83 -22 -106h138v-56h-149q-22 -188 -66 -274q200 -56 298 -56q83 0 116 33l6 -4q-37 -81 -161 -81q-46 0 -87.5 7t-158.5 34q-50 11 -124 27q-8 0 -14 3v5q33 13 49.5 35t30.5 71
q15 59 37 200h-86v56h94q58 321 282 321q92 0 157 -48z" />
    <glyph glyph-name="currency" unicode="&#xa4;" horiz-adv-x="605" 
d="M517 174l-31 -31l-66 65q-56 -41 -118 -41q-63 0 -118 41l-66 -65l-30 31l66 64q-40 58 -40 116q0 63 40 116l-66 65l30 31l66 -65q60 41 118 41q61 0 117 -41l67 65l31 -31l-67 -65q41 -56 41 -116q0 -56 -41 -116zM447 355q0 62 -44 103t-100 41q-61 0 -103.5 -42.5
t-42.5 -101.5t43 -102.5t102 -43.5t102 43.5t43 102.5z" />
    <glyph glyph-name="yen" unicode="&#xa5;" horiz-adv-x="688" 
d="M285 396l-161 240q-30 45 -53.5 59.5t-61.5 15.5v8h255v-8q-17 -1 -29.5 -5.5t-18.5 -10t-9 -13t-3.5 -11t-0.5 -6.5q0 -15 19 -44l150 -222l133 200q30 45 30 69q0 7 -1.5 12.5t-4 9.5t-6 7.5t-6.5 5.5t-7.5 3.5t-6.5 2l-6 1.5l-4 1v8h183v-8q-71 -1 -127 -84l-153 -231
h238v-22h-252v-142h252v-22h-252v-123q0 -26 9 -43.5t24 -24t25 -9t20 -2.5v-8h-227v8q37 1 56 20q19 17 19 59v123h-253v22h253v130l-9 12h-244v22h230z" />
    <glyph glyph-name="brokenbar" unicode="&#xa6;" 
d="M12 0v665h475v-665h-475zM88 618l162 -243l161 243h-323zM60 575v-484l40 61l80 120l41 61zM440 575l-162 -242l162 -243v485zM411 48l-161 242l-162 -242h323z" />
    <glyph glyph-name="section" unicode="&#xa7;" 
d="M12 0v665h475v-665h-475zM88 618l162 -243l161 243h-323zM60 575v-484l40 61l80 120l41 61zM440 575l-162 -242l162 -243v485zM411 48l-161 242l-162 -242h323z" />
    <glyph glyph-name="dieresis" unicode="&#xa8;" horiz-adv-x="333" 
d="M265 878q19 0 33 -14t14 -33t-14 -33t-33 -14t-33 14t-14 33t14 33t33 14zM68 877q19 0 32.5 -13.5t13.5 -32.5t-13.5 -33t-32.5 -14q-20 0 -33.5 14t-13.5 33t14 32.5t33 13.5z" />
    <glyph glyph-name="copyright" unicode="&#xa9;" horiz-adv-x="771" 
d="M539 553l10 -143h-15q-34 120 -139 120q-71 0 -109.5 -59t-38.5 -139q0 -56 16 -96.5t42 -59t50 -26.5t49 -8q82 0 145 84l10 -7q-62 -107 -170 -107q-88 0 -148 60.5t-60 155.5q0 100 63.5 161.5t146.5 61.5q38 0 84 -17q12 -8 30 -8q19 0 19 27h15zM385 670
q143 0 244.5 -100.5t101.5 -244.5t-101.5 -245t-244.5 -101t-244 101.5t-101 244.5t101.5 244t243.5 101zM385 643q-132 0 -225.5 -93t-93.5 -226q0 -132 93 -225.5t226 -93.5q132 0 225.5 93.5t93.5 225.5q0 133 -93.5 226t-225.5 93z" />
    <glyph glyph-name="ordfeminine" unicode="&#xaa;" horiz-adv-x="302" 
d="M182 625v19q0 25 -13 40.5t-25 19t-22 3.5q-46 0 -70 -51q-4 -4 -4 -8l-21 6q3 11 9 23t18 27.5t34 25.5t50 10q51 0 85 -34q22 -23 22 -81v-99q0 -37 12 -37q11 0 17 25h21q-1 -30 -20 -44t-42 -14q-36 0 -51 33q-33 -33 -74 -33q-36 0 -60.5 22t-24.5 49q0 55 99 80
q31 7 60 18zM182 518v86q-7 -3 -29 -10q-23 -7 -34.5 -12t-21.5 -17.5t-10 -30.5q0 -23 13.5 -35.5t26.5 -12.5q34 0 55 32z" />
    <glyph glyph-name="guillemotleft" unicode="&#xab;" horiz-adv-x="354" 
d="M340 598l-100 -243l100 -243h-12l-162 243l162 243h12zM186 598l-101 -243l101 -243h-12l-162 243l162 243h12z" />
    <glyph glyph-name="logicalnot" unicode="&#xac;" horiz-adv-x="667" 
d="M372 168h-33v178h-306v32h339v-210z" />
    <glyph glyph-name="uni00AD" unicode="&#xad;" horiz-adv-x="313" 
d="M27 377h258v-40h-258v40z" />
    <glyph glyph-name="registered" unicode="&#xae;" horiz-adv-x="771" 
d="M308 317v-112q0 -46 11 -56.5t51 -12.5v-17h-179v17q42 0 50.5 12.5t8.5 56.5v257q0 41 -12 52.5t-47 11.5v15h124q95 0 128 -16q62 -29 62 -93q0 -40 -27 -69.5t-82 -35.5l81 -109q3 -3 6 -9q23 -32 42.5 -49t30 -20t28.5 -4v-17h-100q-4 8 -5 9q-1 2 -6 8.5l-10 13
t-6 7.5q-3 5 -7 11q-5 5 -5 7l-103 142h-34zM308 512v-175q134 -5 134 101q0 34 -22.5 58t-70.5 24q-17 0 -41 -8zM385 672q142 0 244 -101t102 -244t-101.5 -244.5t-244.5 -101.5t-244 101.5t-101 244.5t101.5 244t243.5 101zM385 646q-132 0 -225.5 -93.5t-93.5 -226.5
q0 -132 93.5 -226t225.5 -94q133 0 226.5 94t93.5 226q0 133 -94 226.5t-226 93.5z" />
    <glyph glyph-name="macron" unicode="&#xaf;" horiz-adv-x="333" 
d="M21 859h291v-53h-291v53z" />
    <glyph glyph-name="degree" unicode="&#xb0;" 
d="M12 0v665h475v-665h-475zM88 618l162 -243l161 243h-323zM60 575v-484l40 61l80 120l41 61zM440 575l-162 -242l162 -243v485zM411 48l-161 242l-162 -242h323z" />
    <glyph glyph-name="plusminus" unicode="&#xb1;" horiz-adv-x="667" 
d="M594 314h-245v-230h-32v230h-244v32h244v231h32v-231h245v-32zM594 0h-521v32h521v-32z" />
    <glyph glyph-name="two.superior" unicode="&#xb2;" horiz-adv-x="333" 
d="M307 356h-294q32 23 83.5 69.5t72.5 70.5q62 72 62 122q0 41 -27.5 63t-63.5 22q-27 0 -54 -14.5t-39 -47.5h-21q11 44 47.5 71.5t89.5 27.5q58 0 92 -31t34 -72q0 -57 -52.5 -114t-144.5 -125v-2h176q29 0 44 26h15z" />
    <glyph glyph-name="three.superior" unicode="&#xb3;" horiz-adv-x="292" 
d="M25 740h15q4 -7 12 -7q4 0 11 1t8 1q20 5 44 5q53 0 87.5 -26.5t34.5 -64.5q0 -62 -66 -87l-15 -4v-2l15 -2q34 -6 65 -30.5t31 -67.5q0 -46 -42 -78t-99 -32q-59 0 -114 47v29l9 -7q47 -42 99 -42q29 0 48 11t26 28.5t8.5 27t1.5 18.5q0 38 -27 63q-25 22 -73 22h-45v19
h27q95 0 95 82q0 34 -19 56t-52 22q-48 0 -70 -54h-15v72z" />
    <glyph glyph-name="acute" unicode="&#xb4;" horiz-adv-x="333" 
d="M283 944l-140 -160h-20l101 160h59z" />
    <glyph glyph-name="mu" unicode="&#xb5;" 
d="M12 0v665h475v-665h-475zM88 618l162 -243l161 243h-323zM60 575v-484l40 61l80 120l41 61zM440 575l-162 -242l162 -243v485zM411 48l-161 242l-162 -242h323z" />
    <glyph glyph-name="paragraph" unicode="&#xb6;" 
d="M12 0v665h475v-665h-475zM88 618l162 -243l161 243h-323zM60 575v-484l40 61l80 120l41 61zM440 575l-162 -242l162 -243v485zM411 48l-161 242l-162 -242h323z" />
    <glyph glyph-name="periodcentered" unicode="&#xb7;" horiz-adv-x="146" 
d="M73 314q-19 0 -31.5 12.5t-12.5 31.5t12.5 32t31.5 13t32 -13t13 -32t-13 -31.5t-32 -12.5z" />
    <glyph glyph-name="cedilla" unicode="&#xb8;" horiz-adv-x="333" 
d="M163 0h36l-28 -39q69 -5 69 -54q0 -32 -28 -44t-58 -12q-55 0 -102 25v18q1 -1 7 -3q25 -8 43 -8q25 0 38 10.5t13 24.5q0 21 -26 30z" />
    <glyph glyph-name="one.superior" unicode="&#xb9;" horiz-adv-x="177" 
d="M118 729v-325q0 -38 46 -38v-10h-147v10q46 0 46 38v277q0 38 -46 38v10h101z" />
    <glyph glyph-name="ordmasculine" unicode="&#xba;" horiz-adv-x="365" 
d="M179 740q68 0 116 -41t48 -101q0 -56 -43.5 -99t-117.5 -43q-69 0 -115 41t-46 101q0 62 47.5 102t110.5 40zM181 721q-47 0 -69.5 -36t-22.5 -85q0 -56 24 -90.5t70 -34.5q25 0 44 11.5t27.5 26.5t13.5 35t6 30.5t1 20.5q0 122 -94 122z" />
    <glyph glyph-name="guillemotright" unicode="&#xbb;" horiz-adv-x="354" 
d="M14 598h12l162 -243l-162 -243h-12l100 243zM168 598h12l162 -243l-162 -243h-12l101 243z" />
    <glyph glyph-name="onequarter" unicode="&#xbc;" 
d="M12 0v665h475v-665h-475zM88 618l162 -243l161 243h-323zM60 575v-484l40 61l80 120l41 61zM440 575l-162 -242l162 -243v485zM411 48l-161 242l-162 -242h323z" />
    <glyph glyph-name="onehalf" unicode="&#xbd;" 
d="M12 0v665h475v-665h-475zM88 618l162 -243l161 243h-323zM60 575v-484l40 61l80 120l41 61zM440 575l-162 -242l162 -243v485zM411 48l-161 242l-162 -242h323z" />
    <glyph glyph-name="threequarters" unicode="&#xbe;" 
d="M12 0v665h475v-665h-475zM88 618l162 -243l161 243h-323zM60 575v-484l40 61l80 120l41 61zM440 575l-162 -242l162 -243v485zM411 48l-161 242l-162 -242h323z" />
    <glyph glyph-name="questiondown" unicode="&#xbf;" horiz-adv-x="302" 
d="M284 100l6 -3q-8 -21 -15 -34.5t-23 -35.5t-40 -34t-55 -12q-58 0 -94.5 39.5t-36.5 97.5q0 45 18.5 80.5t74.5 110.5q43 59 59 100.5t14 110.5h7q3 -18 3 -54q0 -46 -10 -77.5t-39 -75.5q-35 -53 -49.5 -85.5t-14.5 -74.5q0 -56 33 -85t71 -29q22 0 49 13t42 48z
M186 707q19 0 31.5 -12.5t12.5 -31.5t-12.5 -32t-31.5 -13t-32 13t-13 32t13 31.5t32 12.5z" />
    <glyph glyph-name="Agrave" unicode="&#xc0;" horiz-adv-x="688" 
d="M364 728l215 -616q13 -36 24.5 -57.5t25 -31t22 -12t25.5 -3.5v-8h-235v8h5q22 0 33.5 1.5t24 11.5t12.5 31q0 16 -9 44q-2 4 -2 6l-64 191h-249l-57 -177q-12 -36 -12 -58q0 -30 15.5 -40t42.5 -10v-8h-169v8q36 3 57.5 27t38.5 74l203 619h53zM200 319h229l-117 341h-2
zM311 947l96 -163h-18l-139 163h61z" />
    <glyph glyph-name="Aacute" unicode="&#xc1;" horiz-adv-x="688" 
d="M364 728l215 -616q13 -36 24.5 -57.5t25 -31t22 -12t25.5 -3.5v-8h-235v8h5q22 0 33.5 1.5t24 11.5t12.5 31q0 16 -9 44q-2 4 -2 6l-64 191h-249l-57 -177q-12 -36 -12 -58q0 -30 15.5 -40t42.5 -10v-8h-169v8q36 3 57.5 27t38.5 74l203 619h53zM200 319h229l-117 341h-2
zM411 944l-140 -160h-20l101 160h59z" />
    <glyph glyph-name="Acircumflex" unicode="&#xc2;" horiz-adv-x="688" 
d="M364 728l215 -616q13 -36 24.5 -57.5t25 -31t22 -12t25.5 -3.5v-8h-235v8h5q22 0 33.5 1.5t24 11.5t12.5 31q0 16 -9 44q-2 4 -2 6l-64 191h-249l-57 -177q-12 -36 -12 -58q0 -30 15.5 -40t42.5 -10v-8h-169v8q36 3 57.5 27t38.5 74l203 619h53zM200 319h229l-117 341h-2
zM354 945l137 -161h-21l-128 107l-123 -107h-21l130 161h26z" />
    <glyph glyph-name="Atilde" unicode="&#xc3;" horiz-adv-x="688" 
d="M364 728l215 -616q13 -36 24.5 -57.5t25 -31t22 -12t25.5 -3.5v-8h-235v8h5q22 0 33.5 1.5t24 11.5t12.5 31q0 16 -9 44q-2 4 -2 6l-64 191h-249l-57 -177q-12 -36 -12 -58q0 -30 15.5 -40t42.5 -10v-8h-169v8q36 3 57.5 27t38.5 74l203 619h53zM200 319h229l-117 341h-2
zM366 794l-40 14q-54 19 -71 19q-25 0 -39 -42h-17q1 43 27.5 69t58.5 26q20 0 74 -19q58 -20 71 -20q31 0 42 39h18q-6 -39 -29 -66.5t-56 -27.5q-18 0 -39 8z" />
    <glyph glyph-name="Adieresis" unicode="&#xc4;" horiz-adv-x="688" 
d="M364 728l215 -616q13 -36 24.5 -57.5t25 -31t22 -12t25.5 -3.5v-8h-235v8h5q22 0 33.5 1.5t24 11.5t12.5 31q0 16 -9 44q-2 4 -2 6l-64 191h-249l-57 -177q-12 -36 -12 -58q0 -30 15.5 -40t42.5 -10v-8h-169v8q36 3 57.5 27t38.5 74l203 619h53zM200 319h229l-117 341h-2
zM443 878q19 0 33 -14t14 -33t-14 -33t-33 -14t-33 14t-14 33t14 33t33 14zM246 877q19 0 32.5 -13.5t13.5 -32.5t-13.5 -33t-32.5 -14q-20 0 -33.5 14t-13.5 33t14 32.5t33 13.5z" />
    <glyph glyph-name="Aring" unicode="&#xc5;" horiz-adv-x="688" 
d="M364 728l215 -616q13 -36 24.5 -57.5t25 -31t22 -12t25.5 -3.5v-8h-235v8h5q22 0 33.5 1.5t24 11.5t12.5 31q0 16 -9 44q-2 4 -2 6l-64 191h-249l-57 -177q-12 -36 -12 -58q0 -30 15.5 -40t42.5 -10v-8h-169v8q36 3 57.5 27t38.5 74l203 619h53zM200 319h229l-117 341h-2
zM344 960q37 0 62.5 -26t25.5 -62t-25.5 -62t-62.5 -26q-36 0 -61.5 26t-25.5 62t25.5 62t61.5 26zM345 931q-25 0 -42 -17.5t-17 -41.5t17 -41.5t42 -17.5q24 0 41 17.5t17 41.5t-17 41.5t-41 17.5z" />
    <glyph glyph-name="AE" unicode="&#xc6;" horiz-adv-x="823" 
d="M775 719v-106h-8q0 32 -26 58t-56 26h-190v-322h141q95 0 95 72h8v-163h-8q0 39 -28.5 54t-63.5 15h-144v-267q0 -33 15 -48.5t51 -15.5h98q55 0 85.5 21t46.5 71h8l-24 -114h-431v8q77 2 77 78v267h-162l-106 -213l-2 -5q-28 -56 -28 -82q0 -14 5 -23t16.5 -13.5
t16.5 -5.5t20 -3v-8h-169v8q32 4 51 21.5t38 56.5l315 633h359zM268 375h153v308h-2z" />
    <glyph glyph-name="Ccedilla" unicode="&#xc7;" horiz-adv-x="719" 
d="M684 558h-8q-9 54 -52.5 92t-92.5 53t-96 15q-126 0 -209.5 -100t-83.5 -259q0 -157 82.5 -253t216.5 -96q128 0 236 96v-28q-63 -52 -108 -70t-133 -28l-13 -19q69 -5 69 -54q0 -32 -28 -44t-58 -12q-54 0 -103 25v18q1 0 8 -3q25 -8 43 -8q25 0 38 10.5t13 24.5
q0 21 -26 30l22 32q-35 4 -55.5 8t-56.5 15t-61.5 26.5t-57 44.5t-57.5 68q-61 93 -61 206q0 70 25.5 137.5t73.5 125.5t127 93.5t177 35.5q61 0 108 -14q73 -22 92 -22q20 0 26 27h8z" />
    <glyph glyph-name="Egrave" unicode="&#xc8;" horiz-adv-x="510" 
d="M35 711v8h429v-113h-7q0 91 -121 91h-150v-327h132q98 0 105 71h7v-163h-7q-5 28 -19 44t-24 19.5t-19 3.5q-18 3 -37 3h-138v-255q0 -71 62 -71h107q57 0 84.5 23t42.5 68h7l-25 -113h-429v8h10q22 0 44.5 18.5t22.5 60.5v542q0 32 -15.5 57t-51.5 25h-10zM222 947
l96 -163h-18l-139 163h61z" />
    <glyph glyph-name="Eacute" unicode="&#xc9;" horiz-adv-x="510" 
d="M35 711v8h429v-113h-7q0 91 -121 91h-150v-327h132q98 0 105 71h7v-163h-7q-5 28 -19 44t-24 19.5t-19 3.5q-18 3 -37 3h-138v-255q0 -71 62 -71h107q57 0 84.5 23t42.5 68h7l-25 -113h-429v8h10q22 0 44.5 18.5t22.5 60.5v542q0 32 -15.5 57t-51.5 25h-10zM392 944
l-140 -160h-20l101 160h59z" />
    <glyph glyph-name="Ecircumflex" unicode="&#xca;" horiz-adv-x="510" 
d="M35 711v8h429v-113h-7q0 91 -121 91h-150v-327h132q98 0 105 71h7v-163h-7q-5 28 -19 44t-24 19.5t-19 3.5q-18 3 -37 3h-138v-255q0 -71 62 -71h107q57 0 84.5 23t42.5 68h7l-25 -113h-429v8h10q22 0 44.5 18.5t22.5 60.5v542q0 32 -15.5 57t-51.5 25h-10zM265 945
l137 -161h-21l-128 107l-123 -107h-21l130 161h26z" />
    <glyph glyph-name="Edieresis" unicode="&#xcb;" horiz-adv-x="510" 
d="M35 711v8h429v-113h-7q0 91 -121 91h-150v-327h132q98 0 105 71h7v-163h-7q-5 28 -19 44t-24 19.5t-19 3.5q-18 3 -37 3h-138v-255q0 -71 62 -71h107q57 0 84.5 23t42.5 68h7l-25 -113h-429v8h10q22 0 44.5 18.5t22.5 60.5v542q0 32 -15.5 57t-51.5 25h-10zM354 878
q20 0 33.5 -14t13.5 -33t-14 -33t-33 -14t-33 14t-14 33t13.5 33t33.5 14zM157 877q19 0 32.5 -13.5t13.5 -32.5t-13.5 -33t-32.5 -14t-33 14t-14 33t14 32.5t33 13.5z" />
    <glyph glyph-name="Igrave" unicode="&#xcc;" horiz-adv-x="302" 
d="M265 719v-8q-33 0 -55 -18t-22 -60v-546q0 -42 23.5 -60.5t53.5 -18.5v-8h-228v8q31 0 54 18.5t23 60.5v546q0 78 -77 78v8h228zM118 947l96 -163h-18l-139 163h61z" />
    <glyph glyph-name="Iacute" unicode="&#xcd;" horiz-adv-x="302" 
d="M265 719v-8q-33 0 -55 -18t-22 -60v-546q0 -42 23.5 -60.5t53.5 -18.5v-8h-228v8q31 0 54 18.5t23 60.5v546q0 78 -77 78v8h228zM268 944l-140 -160h-20l101 160h59z" />
    <glyph glyph-name="Icircumflex" unicode="&#xce;" horiz-adv-x="302" 
d="M265 719v-8q-33 0 -55 -18t-22 -60v-546q0 -42 23.5 -60.5t53.5 -18.5v-8h-228v8q31 0 54 18.5t23 60.5v546q0 78 -77 78v8h228zM161 945l137 -161h-21l-128 107l-123 -107h-21l130 161h26z" />
    <glyph glyph-name="Idieresis" unicode="&#xcf;" horiz-adv-x="302" 
d="M265 719v-8q-33 0 -55 -18t-22 -60v-546q0 -42 23.5 -60.5t53.5 -18.5v-8h-228v8q31 0 54 18.5t23 60.5v546q0 78 -77 78v8h228zM250 878q20 0 33.5 -14t13.5 -33t-14 -33t-33 -14t-33 14t-14 33t13.5 33t33.5 14zM53 877q19 0 32.5 -13.5t13.5 -32.5t-13.5 -33
t-32.5 -14t-33 14t-14 33t14 32.5t33 13.5z" />
    <glyph glyph-name="Eth" unicode="&#xd0;" horiz-adv-x="781" 
d="M114 87v261h-77v22h77v260q0 35 -18 58t-49 23h-10v8h277q201 0 316 -120q100 -104 100 -253q0 -97 -44.5 -174.5t-124.5 -125.5q-76 -46 -201 -46h-323v8h10q33 0 50 25t17 54zM188 685v-315h193v-22h-193v-240q0 -25 7 -41.5t17 -25t30.5 -13t36.5 -5.5t47 -1
q78 0 132 15.5t104 68.5q82 88 82 235q0 141 -73 238q-89 118 -264 118q-47 0 -119 -12z" />
    <glyph glyph-name="Ntilde" unicode="&#xd1;" horiz-adv-x="813" 
d="M781 719v-8q-42 -5 -59.5 -22.5t-17.5 -75.5v-631h-5l-552 616v-442q0 -97 17 -121q18 -25 63 -27v-8h-180v8q46 2 62 30t16 117v469l-24 27q-22 25 -41.5 38.5t-28 15.5t-28.5 6v8h135l544 -609v464q0 31 -1 47t-5 36t-12.5 29.5t-24 16.5t-39.5 8v8h181zM428 794
l-40 14q-54 19 -71 19q-25 0 -39 -42h-17q1 43 27.5 69t58.5 26q20 0 74 -19q58 -20 71 -20q31 0 42 39h18q-6 -39 -29 -66.5t-56 -27.5q-18 0 -39 8z" />
    <glyph glyph-name="Ograve" unicode="&#xd2;" horiz-adv-x="865" 
d="M812 359q0 -155 -109.5 -266.5t-268.5 -111.5q-161 0 -271.5 112t-110.5 269q0 160 113 269t268 109q98 0 184 -46.5t140.5 -135t54.5 -199.5zM726 357q0 90 -22.5 158.5t-55 106t-75.5 60.5t-76 29.5t-64 6.5q-34 0 -69.5 -8t-77.5 -32t-73.5 -62t-53 -104t-21.5 -152
q0 -76 17 -137.5t45.5 -102t67.5 -67.5t80 -38.5t86 -11.5q51 0 98.5 17t93 55t73 110.5t27.5 171.5zM399 947l96 -163h-18l-139 163h61z" />
    <glyph glyph-name="Oacute" unicode="&#xd3;" horiz-adv-x="865" 
d="M812 359q0 -155 -109.5 -266.5t-268.5 -111.5q-161 0 -271.5 112t-110.5 269q0 160 113 269t268 109q98 0 184 -46.5t140.5 -135t54.5 -199.5zM726 357q0 90 -22.5 158.5t-55 106t-75.5 60.5t-76 29.5t-64 6.5q-34 0 -69.5 -8t-77.5 -32t-73.5 -62t-53 -104t-21.5 -152
q0 -76 17 -137.5t45.5 -102t67.5 -67.5t80 -38.5t86 -11.5q51 0 98.5 17t93 55t73 110.5t27.5 171.5zM549 944l-140 -160h-20l101 160h59z" />
    <glyph glyph-name="Ocircumflex" unicode="&#xd4;" horiz-adv-x="865" 
d="M812 359q0 -155 -109.5 -266.5t-268.5 -111.5q-161 0 -271.5 112t-110.5 269q0 160 113 269t268 109q98 0 184 -46.5t140.5 -135t54.5 -199.5zM726 357q0 90 -22.5 158.5t-55 106t-75.5 60.5t-76 29.5t-64 6.5q-34 0 -69.5 -8t-77.5 -32t-73.5 -62t-53 -104t-21.5 -152
q0 -76 17 -137.5t45.5 -102t67.5 -67.5t80 -38.5t86 -11.5q51 0 98.5 17t93 55t73 110.5t27.5 171.5zM442 945l137 -161h-21l-128 107l-123 -107h-21l130 161h26z" />
    <glyph glyph-name="Otilde" unicode="&#xd5;" horiz-adv-x="865" 
d="M812 359q0 -155 -109.5 -266.5t-268.5 -111.5q-161 0 -271.5 112t-110.5 269q0 160 113 269t268 109q98 0 184 -46.5t140.5 -135t54.5 -199.5zM726 357q0 90 -22.5 158.5t-55 106t-75.5 60.5t-76 29.5t-64 6.5q-34 0 -69.5 -8t-77.5 -32t-73.5 -62t-53 -104t-21.5 -152
q0 -76 17 -137.5t45.5 -102t67.5 -67.5t80 -38.5t86 -11.5q51 0 98.5 17t93 55t73 110.5t27.5 171.5zM454 794l-40 14q-54 19 -71 19q-25 0 -39 -42h-17q1 43 27.5 69t58.5 26q20 0 74 -19q58 -20 71 -20q31 0 42 39h18q-6 -39 -29 -66.5t-56 -27.5q-18 0 -39 8z" />
    <glyph glyph-name="Odieresis" unicode="&#xd6;" horiz-adv-x="865" 
d="M812 359q0 -155 -109.5 -266.5t-268.5 -111.5q-161 0 -271.5 112t-110.5 269q0 160 113 269t268 109q98 0 184 -46.5t140.5 -135t54.5 -199.5zM726 357q0 90 -22.5 158.5t-55 106t-75.5 60.5t-76 29.5t-64 6.5q-34 0 -69.5 -8t-77.5 -32t-73.5 -62t-53 -104t-21.5 -152
q0 -76 17 -137.5t45.5 -102t67.5 -67.5t80 -38.5t86 -11.5q51 0 98.5 17t93 55t73 110.5t27.5 171.5zM531 878q19 0 33 -14t14 -33t-14 -33t-33 -14t-33 14t-14 33t14 33t33 14zM334 877q19 0 32.5 -13.5t13.5 -32.5t-13.5 -33t-32.5 -14q-20 0 -33.5 14t-13.5 33t14 32.5
t33 13.5z" />
    <glyph glyph-name="multiply" unicode="&#xd7;" horiz-adv-x="668" 
d="M570 64l-22 -24l-215 212l-214 -212l-22 23l214 213l-214 213l24 23l213 -213l214 213l22 -23l-214 -213z" />
    <glyph glyph-name="Oslash" unicode="&#xd8;" horiz-adv-x="865" 
d="M677 652l78 88l17 -14l-79 -88q119 -110 119 -277q0 -157 -110 -268.5t-268 -111.5q-137 0 -244 87l-78 -88l-16 14l78 88q-121 115 -121 280q0 160 112.5 269t266.5 109q141 0 243 -86zM204 117l444 502q-84 99 -216 99q-34 0 -68.5 -7.5t-76.5 -31.5t-73.5 -61.5
t-53 -104.5t-21.5 -153q0 -148 65 -243zM662 602l-444 -503q75 -96 216 -96q35 0 70 8t76.5 31.5t72.5 61.5t52 104.5t21 152.5q0 148 -64 241z" />
    <glyph glyph-name="Ugrave" unicode="&#xd9;" horiz-adv-x="781" 
d="M746 0h-151v119l-2 2q-31 -73 -93.5 -106.5t-130.5 -33.5q-76 0 -137.5 36.5t-90.5 90.5q-31 58 -31 165v358q0 15 -1.5 24t-7.5 23t-23 22.5t-43 10.5v8h226v-8q-77 -9 -77 -80v-352q0 -107 22 -159q23 -55 70 -85.5t107 -30.5q67 0 123 38q89 61 89 196v393
q0 13 -1.5 22t-8 23.5t-24 23.5t-44.5 11v8h230v-8q-78 -4 -78 -79v-545q0 -42 19 -57.5t58 -21.5v-8zM357 947l96 -163h-18l-139 163h61z" />
    <glyph glyph-name="Uacute" unicode="&#xda;" horiz-adv-x="781" 
d="M746 0h-151v119l-2 2q-31 -73 -93.5 -106.5t-130.5 -33.5q-76 0 -137.5 36.5t-90.5 90.5q-31 58 -31 165v358q0 15 -1.5 24t-7.5 23t-23 22.5t-43 10.5v8h226v-8q-77 -9 -77 -80v-352q0 -107 22 -159q23 -55 70 -85.5t107 -30.5q67 0 123 38q89 61 89 196v393
q0 13 -1.5 22t-8 23.5t-24 23.5t-44.5 11v8h230v-8q-78 -4 -78 -79v-545q0 -42 19 -57.5t58 -21.5v-8zM507 944l-140 -160h-20l101 160h59z" />
    <glyph glyph-name="Ucircumflex" unicode="&#xdb;" horiz-adv-x="781" 
d="M746 0h-151v119l-2 2q-31 -73 -93.5 -106.5t-130.5 -33.5q-76 0 -137.5 36.5t-90.5 90.5q-31 58 -31 165v358q0 15 -1.5 24t-7.5 23t-23 22.5t-43 10.5v8h226v-8q-77 -9 -77 -80v-352q0 -107 22 -159q23 -55 70 -85.5t107 -30.5q67 0 123 38q89 61 89 196v393
q0 13 -1.5 22t-8 23.5t-24 23.5t-44.5 11v8h230v-8q-78 -4 -78 -79v-545q0 -42 19 -57.5t58 -21.5v-8zM400 945l137 -161h-21l-128 107l-123 -107h-21l130 161h26z" />
    <glyph glyph-name="Udieresis" unicode="&#xdc;" horiz-adv-x="781" 
d="M746 0h-151v119l-2 2q-31 -73 -93.5 -106.5t-130.5 -33.5q-76 0 -137.5 36.5t-90.5 90.5q-31 58 -31 165v358q0 15 -1.5 24t-7.5 23t-23 22.5t-43 10.5v8h226v-8q-77 -9 -77 -80v-352q0 -107 22 -159q23 -55 70 -85.5t107 -30.5q67 0 123 38q89 61 89 196v393
q0 13 -1.5 22t-8 23.5t-24 23.5t-44.5 11v8h230v-8q-78 -4 -78 -79v-545q0 -42 19 -57.5t58 -21.5v-8zM489 878q19 0 33 -14t14 -33t-14 -33t-33 -14t-33 14t-14 33t14 33t33 14zM292 877q19 0 32.5 -13.5t13.5 -32.5t-13.5 -33t-32.5 -14q-20 0 -33.5 14t-13.5 33t14 32.5
t33 13.5z" />
    <glyph glyph-name="Yacute" unicode="&#xdd;" horiz-adv-x="688" 
d="M677 719v-8q-71 -1 -127 -84l-168 -253v-288q0 -38 23 -57.5t56 -20.5v-8h-228v8q75 2 75 78v276l-183 274q-30 45 -53.5 59.5t-61.5 15.5v8h255v-8q-17 -1 -29.5 -5.5t-18.5 -10t-9 -13t-3.5 -11t-0.5 -6.5q0 -15 19 -44l150 -222l133 200q30 45 30 69q0 7 -1.5 12.5
t-4 9.5t-6 7.5t-6.5 5.5t-7.5 3.5t-6.5 2l-6 1.5l-4 1v8h183zM461 944l-140 -160h-20l101 160h59z" />
    <glyph glyph-name="Thorn" unicode="&#xde;" horiz-adv-x="542" 
d="M266 719v-8q-47 -2 -67 -32q-10 -15 -10 -48v-74h85q113 0 176 -58t63 -138q0 -81 -61 -137t-186 -56q-39 0 -77 6v-87q0 -77 77 -79v-8h-228v8q77 2 77 79v544q0 78 -77 80v8h228zM189 533v-340q32 -6 73 -6q168 0 168 169q0 80 -42.5 131t-129.5 51q-29 0 -69 -5z" />
    <glyph glyph-name="germandbls" unicode="&#xdf;" horiz-adv-x="938" 
d="M875 581h-8q-7 52 -46 91.5t-102 39.5t-102 -42.5t-39 -107.5q0 -66 35.5 -101t129.5 -86q30 -17 46 -26.5t43 -30t41 -39.5t25.5 -48t11.5 -61q0 -73 -55.5 -129.5t-158.5 -56.5q-76 0 -148 36q-15 5 -20 5q-3 0 -6 -1t-4.5 -3t-3 -4.5t-3 -6.5t-2 -7t-1.5 -8.5t-2 -8.5
h-8v180h8q17 -79 68 -119.5t124 -40.5q42 0 72.5 12.5t45.5 33.5t21.5 41.5t6.5 41.5q0 60 -37 98.5t-112 78.5q-46 24 -68.5 38.5t-54.5 42t-46 62t-14 78.5q0 80 60 140t155 60q46 0 97 -16q8 -4 21 -4q16 0 22 22h8v-154zM406 581h-8q-7 52 -46 91.5t-102 39.5
t-102 -42.5t-39 -107.5q0 -66 35.5 -101t129.5 -86q30 -17 46 -26.5t43 -30t41 -39.5t25.5 -48t11.5 -61q0 -73 -55.5 -129.5t-158.5 -56.5q-76 0 -148 36q-15 5 -20 5q-3 0 -6 -1t-4.5 -3t-3 -4.5t-3 -6.5t-2 -7t-1.5 -8.5t-2 -8.5h-8v180h8q17 -79 68 -119.5t124 -40.5
q42 0 72.5 12.5t45.5 33.5t21.5 41.5t6.5 41.5q0 60 -37 98.5t-112 78.5q-46 24 -68.5 38.5t-54.5 42t-46 62t-14 78.5q0 80 60 140t155 60q46 0 97 -16q8 -4 21 -4q16 0 22 22h8v-154z" />
    <glyph glyph-name="agrave" unicode="&#xe0;" horiz-adv-x="688" 
d="M364 728l215 -616q13 -36 24.5 -57.5t25 -31t22 -12t25.5 -3.5v-8h-235v8h5q22 0 33.5 1.5t24 11.5t12.5 31q0 16 -9 44q-2 4 -2 6l-64 191h-249l-57 -177q-12 -36 -12 -58q0 -30 15.5 -40t42.5 -10v-8h-169v8q36 3 57.5 27t38.5 74l203 619h53zM200 319h229l-117 341h-2
zM311 947l96 -163h-18l-139 163h61z" />
    <glyph glyph-name="aacute" unicode="&#xe1;" horiz-adv-x="688" 
d="M364 728l215 -616q13 -36 24.5 -57.5t25 -31t22 -12t25.5 -3.5v-8h-235v8h5q22 0 33.5 1.5t24 11.5t12.5 31q0 16 -9 44q-2 4 -2 6l-64 191h-249l-57 -177q-12 -36 -12 -58q0 -30 15.5 -40t42.5 -10v-8h-169v8q36 3 57.5 27t38.5 74l203 619h53zM200 319h229l-117 341h-2
zM461 944l-140 -160h-20l101 160h59z" />
    <glyph glyph-name="acircumflex" unicode="&#xe2;" horiz-adv-x="688" 
d="M364 728l215 -616q13 -36 24.5 -57.5t25 -31t22 -12t25.5 -3.5v-8h-235v8h5q22 0 33.5 1.5t24 11.5t12.5 31q0 16 -9 44q-2 4 -2 6l-64 191h-249l-57 -177q-12 -36 -12 -58q0 -30 15.5 -40t42.5 -10v-8h-169v8q36 3 57.5 27t38.5 74l203 619h53zM200 319h229l-117 341h-2
zM354 945l137 -161h-21l-128 107l-123 -107h-21l130 161h26z" />
    <glyph glyph-name="atilde" unicode="&#xe3;" horiz-adv-x="688" 
d="M364 728l215 -616q13 -36 24.5 -57.5t25 -31t22 -12t25.5 -3.5v-8h-235v8h5q22 0 33.5 1.5t24 11.5t12.5 31q0 16 -9 44q-2 4 -2 6l-64 191h-249l-57 -177q-12 -36 -12 -58q0 -30 15.5 -40t42.5 -10v-8h-169v8q36 3 57.5 27t38.5 74l203 619h53zM200 319h229l-117 341h-2
zM366 794l-40 14q-54 19 -71 19q-25 0 -39 -42h-17q1 43 27.5 69t58.5 26q20 0 74 -19q58 -20 71 -20q31 0 42 39h18q-6 -39 -29 -66.5t-56 -27.5q-18 0 -39 8z" />
    <glyph glyph-name="adieresis" unicode="&#xe4;" horiz-adv-x="688" 
d="M364 728l215 -616q13 -36 24.5 -57.5t25 -31t22 -12t25.5 -3.5v-8h-235v8h5q22 0 33.5 1.5t24 11.5t12.5 31q0 16 -9 44q-2 4 -2 6l-64 191h-249l-57 -177q-12 -36 -12 -58q0 -30 15.5 -40t42.5 -10v-8h-169v8q36 3 57.5 27t38.5 74l203 619h53zM200 319h229l-117 341h-2
zM443 878q19 0 33 -14t14 -33t-14 -33t-33 -14t-33 14t-14 33t14 33t33 14zM246 877q19 0 32.5 -13.5t13.5 -32.5t-13.5 -33t-32.5 -14q-20 0 -33.5 14t-13.5 33t14 32.5t33 13.5z" />
    <glyph glyph-name="aring" unicode="&#xe5;" horiz-adv-x="688" 
d="M364 728l215 -616q13 -36 24.5 -57.5t25 -31t22 -12t25.5 -3.5v-8h-235v8h5q22 0 33.5 1.5t24 11.5t12.5 31q0 16 -9 44q-2 4 -2 6l-64 191h-249l-57 -177q-12 -36 -12 -58q0 -30 15.5 -40t42.5 -10v-8h-169v8q36 3 57.5 27t38.5 74l203 619h53zM200 319h229l-117 341h-2
zM344 960q37 0 62.5 -26t25.5 -62t-25.5 -62t-62.5 -26q-36 0 -61.5 26t-25.5 62t25.5 62t61.5 26zM345 931q-25 0 -42 -17.5t-17 -41.5t17 -41.5t42 -17.5q24 0 41 17.5t17 41.5t-17 41.5t-41 17.5z" />
    <glyph glyph-name="ae" unicode="&#xe6;" horiz-adv-x="823" 
d="M775 719v-106h-8q0 32 -26 58t-56 26h-190v-322h141q95 0 95 72h8v-163h-8q0 39 -28.5 54t-63.5 15h-144v-267q0 -33 15 -48.5t51 -15.5h98q55 0 85.5 21t46.5 71h8l-24 -114h-431v8q77 2 77 78v267h-162l-106 -213l-2 -5q-28 -56 -28 -82q0 -14 5 -23t16.5 -13.5
t16.5 -5.5t20 -3v-8h-169v8q32 4 51 21.5t38 56.5l315 633h359zM268 375h153v308h-2z" />
    <glyph glyph-name="ccedilla" unicode="&#xe7;" horiz-adv-x="719" 
d="M684 558h-8q-9 54 -52.5 92t-92.5 53t-96 15q-126 0 -209.5 -100t-83.5 -259q0 -157 82.5 -253t216.5 -96q128 0 236 96v-28q-63 -52 -108 -70t-133 -28l-13 -19q69 -5 69 -54q0 -32 -28 -44t-58 -12q-54 0 -103 25v18q1 0 8 -3q25 -8 43 -8q25 0 38 10.5t13 24.5
q0 21 -26 30l22 32q-35 4 -55.5 8t-56.5 15t-61.5 26.5t-57 44.5t-57.5 68q-61 93 -61 206q0 70 25.5 137.5t73.5 125.5t127 93.5t177 35.5q61 0 108 -14q73 -22 92 -22q20 0 26 27h8z" />
    <glyph glyph-name="egrave" unicode="&#xe8;" horiz-adv-x="510" 
d="M35 711v8h429v-113h-7q0 91 -121 91h-150v-327h132q98 0 105 71h7v-163h-7q-5 28 -19 44t-24 19.5t-19 3.5q-18 3 -37 3h-138v-255q0 -71 62 -71h107q57 0 84.5 23t42.5 68h7l-25 -113h-429v8h10q22 0 44.5 18.5t22.5 60.5v542q0 32 -15.5 57t-51.5 25h-10zM222 947
l96 -163h-18l-139 163h61z" />
    <glyph glyph-name="eacute" unicode="&#xe9;" horiz-adv-x="510" 
d="M35 711v8h429v-113h-7q0 91 -121 91h-150v-327h132q98 0 105 71h7v-163h-7q-5 28 -19 44t-24 19.5t-19 3.5q-18 3 -37 3h-138v-255q0 -71 62 -71h107q57 0 84.5 23t42.5 68h7l-25 -113h-429v8h10q22 0 44.5 18.5t22.5 60.5v542q0 32 -15.5 57t-51.5 25h-10zM372 944
l-140 -160h-20l101 160h59z" />
    <glyph glyph-name="ecircumflex" unicode="&#xea;" horiz-adv-x="510" 
d="M35 711v8h429v-113h-7q0 91 -121 91h-150v-327h132q98 0 105 71h7v-163h-7q-5 28 -19 44t-24 19.5t-19 3.5q-18 3 -37 3h-138v-255q0 -71 62 -71h107q57 0 84.5 23t42.5 68h7l-25 -113h-429v8h10q22 0 44.5 18.5t22.5 60.5v542q0 32 -15.5 57t-51.5 25h-10zM265 945
l137 -161h-21l-128 107l-123 -107h-21l130 161h26z" />
    <glyph glyph-name="edieresis" unicode="&#xeb;" horiz-adv-x="510" 
d="M35 711v8h429v-113h-7q0 91 -121 91h-150v-327h132q98 0 105 71h7v-163h-7q-5 28 -19 44t-24 19.5t-19 3.5q-18 3 -37 3h-138v-255q0 -71 62 -71h107q57 0 84.5 23t42.5 68h7l-25 -113h-429v8h10q22 0 44.5 18.5t22.5 60.5v542q0 32 -15.5 57t-51.5 25h-10zM354 878
q20 0 33.5 -14t13.5 -33t-14 -33t-33 -14t-33 14t-14 33t13.5 33t33.5 14zM157 877q19 0 32.5 -13.5t13.5 -32.5t-13.5 -33t-32.5 -14t-33 14t-14 33t14 32.5t33 13.5z" />
    <glyph glyph-name="igrave" unicode="&#xec;" horiz-adv-x="302" 
d="M265 719v-8q-33 0 -55 -18t-22 -60v-546q0 -42 23.5 -60.5t53.5 -18.5v-8h-228v8q31 0 54 18.5t23 60.5v546q0 78 -77 78v8h228zM118 947l96 -163h-18l-139 163h61z" />
    <glyph glyph-name="iacute" unicode="&#xed;" horiz-adv-x="302" 
d="M265 719v-8q-33 0 -55 -18t-22 -60v-546q0 -42 23.5 -60.5t53.5 -18.5v-8h-228v8q31 0 54 18.5t23 60.5v546q0 78 -77 78v8h228zM268 944l-140 -160h-20l101 160h59z" />
    <glyph glyph-name="icircumflex" unicode="&#xee;" horiz-adv-x="302" 
d="M265 719v-8q-33 0 -55 -18t-22 -60v-546q0 -42 23.5 -60.5t53.5 -18.5v-8h-228v8q31 0 54 18.5t23 60.5v546q0 78 -77 78v8h228zM161 945l137 -161h-21l-128 107l-123 -107h-21l130 161h26z" />
    <glyph glyph-name="idieresis" unicode="&#xef;" horiz-adv-x="302" 
d="M265 719v-8q-33 0 -55 -18t-22 -60v-546q0 -42 23.5 -60.5t53.5 -18.5v-8h-228v8q31 0 54 18.5t23 60.5v546q0 78 -77 78v8h228zM250 878q20 0 33.5 -14t13.5 -33t-14 -33t-33 -14t-33 14t-14 33t13.5 33t33.5 14zM53 877q19 0 32.5 -13.5t13.5 -32.5t-13.5 -33
t-32.5 -14t-33 14t-14 33t14 32.5t33 13.5z" />
    <glyph glyph-name="eth" unicode="&#xf0;" horiz-adv-x="781" 
d="M114 87v261h-77v22h77v260q0 35 -18 58t-49 23h-10v8h277q201 0 316 -120q100 -104 100 -253q0 -97 -44.5 -174.5t-124.5 -125.5q-76 -46 -201 -46h-323v8h10q33 0 50 25t17 54zM188 685v-315h193v-22h-193v-240q0 -25 7 -41.5t17 -25t30.5 -13t36.5 -5.5t47 -1
q78 0 132 15.5t104 68.5q82 88 82 235q0 141 -73 238q-89 118 -264 118q-47 0 -119 -12z" />
    <glyph glyph-name="ntilde" unicode="&#xf1;" horiz-adv-x="813" 
d="M781 719v-8q-42 -5 -59.5 -22.5t-17.5 -75.5v-631h-5l-552 616v-442q0 -97 17 -121q18 -25 63 -27v-8h-180v8q46 2 62 30t16 117v469l-24 27q-22 25 -41.5 38.5t-28 15.5t-28.5 6v8h135l544 -609v464q0 31 -1 47t-5 36t-12.5 29.5t-24 16.5t-39.5 8v8h181zM428 794
l-40 14q-54 19 -71 19q-25 0 -39 -42h-17q1 43 27.5 69t58.5 26q20 0 74 -19q58 -20 71 -20q31 0 42 39h18q-6 -39 -29 -66.5t-56 -27.5q-18 0 -39 8z" />
    <glyph glyph-name="ograve" unicode="&#xf2;" horiz-adv-x="865" 
d="M812 359q0 -155 -109.5 -266.5t-268.5 -111.5q-161 0 -271.5 112t-110.5 269q0 160 113 269t268 109q98 0 184 -46.5t140.5 -135t54.5 -199.5zM726 357q0 90 -22.5 158.5t-55 106t-75.5 60.5t-76 29.5t-64 6.5q-34 0 -69.5 -8t-77.5 -32t-73.5 -62t-53 -104t-21.5 -152
q0 -76 17 -137.5t45.5 -102t67.5 -67.5t80 -38.5t86 -11.5q51 0 98.5 17t93 55t73 110.5t27.5 171.5zM399 947l96 -163h-18l-139 163h61z" />
    <glyph glyph-name="oacute" unicode="&#xf3;" horiz-adv-x="865" 
d="M812 359q0 -155 -109.5 -266.5t-268.5 -111.5q-161 0 -271.5 112t-110.5 269q0 160 113 269t268 109q98 0 184 -46.5t140.5 -135t54.5 -199.5zM726 357q0 90 -22.5 158.5t-55 106t-75.5 60.5t-76 29.5t-64 6.5q-34 0 -69.5 -8t-77.5 -32t-73.5 -62t-53 -104t-21.5 -152
q0 -76 17 -137.5t45.5 -102t67.5 -67.5t80 -38.5t86 -11.5q51 0 98.5 17t93 55t73 110.5t27.5 171.5zM549 944l-140 -160h-20l101 160h59z" />
    <glyph glyph-name="ocircumflex" unicode="&#xf4;" horiz-adv-x="865" 
d="M812 359q0 -155 -109.5 -266.5t-268.5 -111.5q-161 0 -271.5 112t-110.5 269q0 160 113 269t268 109q98 0 184 -46.5t140.5 -135t54.5 -199.5zM726 357q0 90 -22.5 158.5t-55 106t-75.5 60.5t-76 29.5t-64 6.5q-34 0 -69.5 -8t-77.5 -32t-73.5 -62t-53 -104t-21.5 -152
q0 -76 17 -137.5t45.5 -102t67.5 -67.5t80 -38.5t86 -11.5q51 0 98.5 17t93 55t73 110.5t27.5 171.5zM442 945l137 -161h-21l-128 107l-123 -107h-21l130 161h26z" />
    <glyph glyph-name="otilde" unicode="&#xf5;" horiz-adv-x="865" 
d="M812 359q0 -155 -109.5 -266.5t-268.5 -111.5q-161 0 -271.5 112t-110.5 269q0 160 113 269t268 109q98 0 184 -46.5t140.5 -135t54.5 -199.5zM726 357q0 90 -22.5 158.5t-55 106t-75.5 60.5t-76 29.5t-64 6.5q-34 0 -69.5 -8t-77.5 -32t-73.5 -62t-53 -104t-21.5 -152
q0 -76 17 -137.5t45.5 -102t67.5 -67.5t80 -38.5t86 -11.5q51 0 98.5 17t93 55t73 110.5t27.5 171.5zM454 794l-40 14q-54 19 -71 19q-25 0 -39 -42h-17q1 43 27.5 69t58.5 26q20 0 74 -19q58 -20 71 -20q31 0 42 39h18q-6 -39 -29 -66.5t-56 -27.5q-18 0 -39 8z" />
    <glyph glyph-name="odieresis" unicode="&#xf6;" horiz-adv-x="865" 
d="M812 359q0 -155 -109.5 -266.5t-268.5 -111.5q-161 0 -271.5 112t-110.5 269q0 160 113 269t268 109q98 0 184 -46.5t140.5 -135t54.5 -199.5zM726 357q0 90 -22.5 158.5t-55 106t-75.5 60.5t-76 29.5t-64 6.5q-34 0 -69.5 -8t-77.5 -32t-73.5 -62t-53 -104t-21.5 -152
q0 -76 17 -137.5t45.5 -102t67.5 -67.5t80 -38.5t86 -11.5q51 0 98.5 17t93 55t73 110.5t27.5 171.5zM531 878q19 0 33 -14t14 -33t-14 -33t-33 -14t-33 14t-14 33t14 33t33 14zM334 877q19 0 32.5 -13.5t13.5 -32.5t-13.5 -33t-32.5 -14q-20 0 -33.5 14t-13.5 33t14 32.5
t33 13.5z" />
    <glyph glyph-name="divide" unicode="&#xf7;" horiz-adv-x="667" 
d="M367 448q0 -14 -9.5 -24.5t-23.5 -10.5t-24 10.5t-10 24.5t10 23.5t24 9.5t23.5 -9.5t9.5 -23.5zM594 260h-521v32h521v-32zM367 105q0 -14 -9.5 -24t-23.5 -10t-24 10t-10 24t10 24t24 10t23.5 -10t9.5 -24z" />
    <glyph glyph-name="oslash" unicode="&#xf8;" horiz-adv-x="865" 
d="M677 652l78 88l17 -14l-79 -88q119 -110 119 -277q0 -157 -110 -268.5t-268 -111.5q-137 0 -244 87l-78 -88l-16 14l78 88q-121 115 -121 280q0 160 112.5 269t266.5 109q141 0 243 -86zM204 117l444 502q-84 99 -216 99q-34 0 -68.5 -7.5t-76.5 -31.5t-73.5 -61.5
t-53 -104.5t-21.5 -153q0 -148 65 -243zM662 602l-444 -503q75 -96 216 -96q35 0 70 8t76.5 31.5t72.5 61.5t52 104.5t21 152.5q0 148 -64 241z" />
    <glyph glyph-name="ugrave" unicode="&#xf9;" horiz-adv-x="781" 
d="M746 0h-151v119l-2 2q-31 -73 -93.5 -106.5t-130.5 -33.5q-76 0 -137.5 36.5t-90.5 90.5q-31 58 -31 165v358q0 15 -1.5 24t-7.5 23t-23 22.5t-43 10.5v8h226v-8q-77 -9 -77 -80v-352q0 -107 22 -159q23 -55 70 -85.5t107 -30.5q67 0 123 38q89 61 89 196v393
q0 13 -1.5 22t-8 23.5t-24 23.5t-44.5 11v8h230v-8q-78 -4 -78 -79v-545q0 -42 19 -57.5t58 -21.5v-8zM357 947l96 -163h-18l-139 163h61z" />
    <glyph glyph-name="uacute" unicode="&#xfa;" horiz-adv-x="781" 
d="M746 0h-151v119l-2 2q-31 -73 -93.5 -106.5t-130.5 -33.5q-76 0 -137.5 36.5t-90.5 90.5q-31 58 -31 165v358q0 15 -1.5 24t-7.5 23t-23 22.5t-43 10.5v8h226v-8q-77 -9 -77 -80v-352q0 -107 22 -159q23 -55 70 -85.5t107 -30.5q67 0 123 38q89 61 89 196v393
q0 13 -1.5 22t-8 23.5t-24 23.5t-44.5 11v8h230v-8q-78 -4 -78 -79v-545q0 -42 19 -57.5t58 -21.5v-8zM507 944l-140 -160h-20l101 160h59z" />
    <glyph glyph-name="ucircumflex" unicode="&#xfb;" horiz-adv-x="781" 
d="M746 0h-151v119l-2 2q-31 -73 -93.5 -106.5t-130.5 -33.5q-76 0 -137.5 36.5t-90.5 90.5q-31 58 -31 165v358q0 15 -1.5 24t-7.5 23t-23 22.5t-43 10.5v8h226v-8q-77 -9 -77 -80v-352q0 -107 22 -159q23 -55 70 -85.5t107 -30.5q67 0 123 38q89 61 89 196v393
q0 13 -1.5 22t-8 23.5t-24 23.5t-44.5 11v8h230v-8q-78 -4 -78 -79v-545q0 -42 19 -57.5t58 -21.5v-8zM400 945l137 -161h-21l-128 107l-123 -107h-21l130 161h26z" />
    <glyph glyph-name="udieresis" unicode="&#xfc;" horiz-adv-x="781" 
d="M746 0h-151v119l-2 2q-31 -73 -93.5 -106.5t-130.5 -33.5q-76 0 -137.5 36.5t-90.5 90.5q-31 58 -31 165v358q0 15 -1.5 24t-7.5 23t-23 22.5t-43 10.5v8h226v-8q-77 -9 -77 -80v-352q0 -107 22 -159q23 -55 70 -85.5t107 -30.5q67 0 123 38q89 61 89 196v393
q0 13 -1.5 22t-8 23.5t-24 23.5t-44.5 11v8h230v-8q-78 -4 -78 -79v-545q0 -42 19 -57.5t58 -21.5v-8zM489 878q19 0 33 -14t14 -33t-14 -33t-33 -14t-33 14t-14 33t14 33t33 14zM292 877q19 0 32.5 -13.5t13.5 -32.5t-13.5 -33t-32.5 -14q-20 0 -33.5 14t-13.5 33t14 32.5
t33 13.5z" />
    <glyph glyph-name="yacute" unicode="&#xfd;" horiz-adv-x="688" 
d="M677 719v-8q-71 -1 -127 -84l-168 -253v-288q0 -38 23 -57.5t56 -20.5v-8h-228v8q75 2 75 78v276l-183 274q-30 45 -53.5 59.5t-61.5 15.5v8h255v-8q-17 -1 -29.5 -5.5t-18.5 -10t-9 -13t-3.5 -11t-0.5 -6.5q0 -15 19 -44l150 -222l133 200q30 45 30 69q0 7 -1.5 12.5
t-4 9.5t-6 7.5t-6.5 5.5t-7.5 3.5t-6.5 2l-6 1.5l-4 1v8h183zM461 944l-140 -160h-20l101 160h59z" />
    <glyph glyph-name="thorn" unicode="&#xfe;" horiz-adv-x="542" 
d="M266 719v-8q-47 -2 -67 -32q-10 -15 -10 -48v-74h85q113 0 176 -58t63 -138q0 -81 -61 -137t-186 -56q-39 0 -77 6v-87q0 -77 77 -79v-8h-228v8q77 2 77 79v544q0 78 -77 80v8h228zM189 533v-340q32 -6 73 -6q168 0 168 169q0 80 -42.5 131t-129.5 51q-29 0 -69 -5z" />
    <glyph glyph-name="ydieresis" unicode="&#xff;" horiz-adv-x="688" 
d="M677 719v-8q-71 -1 -127 -84l-168 -253v-288q0 -38 23 -57.5t56 -20.5v-8h-228v8q75 2 75 78v276l-183 274q-30 45 -53.5 59.5t-61.5 15.5v8h255v-8q-17 -1 -29.5 -5.5t-18.5 -10t-9 -13t-3.5 -11t-0.5 -6.5q0 -15 19 -44l150 -222l133 200q30 45 30 69q0 7 -1.5 12.5
t-4 9.5t-6 7.5t-6.5 5.5t-7.5 3.5t-6.5 2l-6 1.5l-4 1v8h183zM443 878q19 0 33 -14t14 -33t-14 -33t-33 -14t-33 14t-14 33t14 33t33 14zM246 877q19 0 32.5 -13.5t13.5 -32.5t-13.5 -33t-32.5 -14q-20 0 -33.5 14t-13.5 33t14 32.5t33 13.5z" />
    <glyph glyph-name="dotlessi" unicode="&#x131;" horiz-adv-x="302" 
d="M265 719v-8q-33 0 -55 -18t-22 -60v-546q0 -42 23.5 -60.5t53.5 -18.5v-8h-228v8q31 0 54 18.5t23 60.5v546q0 78 -77 78v8h228z" />
    <glyph glyph-name="Lslash" unicode="&#x141;" 
d="M37 8h10q29 1 48 21t19 58v193l-77 -66v32l77 66v318q0 79 -77 81v8h230v-8q-77 -3 -77 -81v-253l148 129v-33l-148 -127v-241q0 -47 23.5 -65t76.5 -18h61q60 0 85.5 20.5t47.5 75.5h8l-27 -118h-428v8z" />
    <glyph glyph-name="lslash" unicode="&#x142;" 
d="M37 8h10q29 1 48 21t19 58v193l-77 -66v32l77 66v318q0 79 -77 81v8h230v-8q-77 -3 -77 -81v-253l148 129v-33l-148 -127v-241q0 -47 23.5 -65t76.5 -18h61q60 0 85.5 20.5t47.5 75.5h8l-27 -118h-428v8z" />
    <glyph glyph-name="OE" unicode="&#x152;" horiz-adv-x="990" 
d="M948 719v-107h-8q-13 85 -122 85h-149v-322h125q36 0 59.5 6.5t34 19t13.5 21t5 20.5h8v-163h-8q-3 16 -5.5 25t-11 22.5t-26.5 20t-44 6.5h-150v-262q0 -13 1 -20.5t6 -21t19 -20.5t36 -7h77q82 0 109 17.5t45 72.5h8l-22 -112h-349q-12 0 -77 -5q-34 -3 -73 -3
q-85 0 -153.5 24t-111.5 62t-72 87.5t-41 97t-12 94.5q0 81 33.5 151t88.5 116.5t124 72.5t141 26q36 0 74 -3l57 -1h371zM596 131v434q0 70 -32.5 103t-108.5 33q-136 0 -223 -89t-87 -253q0 -157 80 -254q74 -91 222 -91q49 0 80.5 10t45 31t17 35t6.5 41z" />
    <glyph glyph-name="oe" unicode="&#x153;" horiz-adv-x="990" 
d="M948 719v-107h-8q-13 85 -122 85h-149v-322h125q36 0 59.5 6.5t34 19t13.5 21t5 20.5h8v-163h-8q-3 16 -5.5 25t-11 22.5t-26.5 20t-44 6.5h-150v-262q0 -13 1 -20.5t6 -21t19 -20.5t36 -7h77q82 0 109 17.5t45 72.5h8l-22 -112h-349q-12 0 -77 -5q-34 -3 -73 -3
q-85 0 -153.5 24t-111.5 62t-72 87.5t-41 97t-12 94.5q0 81 33.5 151t88.5 116.5t124 72.5t141 26q36 0 74 -3l57 -1h371zM596 131v434q0 70 -32.5 103t-108.5 33q-136 0 -223 -89t-87 -253q0 -157 80 -254q74 -91 222 -91q49 0 80.5 10t45 31t17 35t6.5 41z" />
    <glyph glyph-name="Scaron" unicode="&#x160;" horiz-adv-x="469" 
d="M406 581h-8q-7 52 -46 91.5t-102 39.5t-102 -42.5t-39 -107.5q0 -66 35.5 -101t129.5 -86q30 -17 46 -26.5t43 -30t41 -39.5t25.5 -48t11.5 -61q0 -73 -55.5 -129.5t-158.5 -56.5q-76 0 -148 36q-15 5 -20 5q-3 0 -6 -1t-4.5 -3t-3 -4.5t-3 -6.5t-2 -7t-1.5 -8.5t-2 -8.5
h-8v180h8q17 -79 68 -119.5t124 -40.5q42 0 72.5 12.5t45.5 33.5t21.5 41.5t6.5 41.5q0 60 -37 98.5t-112 78.5q-46 24 -68.5 38.5t-54.5 42t-46 62t-14 78.5q0 80 60 140t155 60q46 0 97 -16q8 -4 21 -4q16 0 22 22h8v-154zM225 784l-137 161h21l128 -106l123 106h21
l-130 -161h-26z" />
    <glyph glyph-name="scaron" unicode="&#x161;" horiz-adv-x="469" 
d="M406 581h-8q-7 52 -46 91.5t-102 39.5t-102 -42.5t-39 -107.5q0 -66 35.5 -101t129.5 -86q30 -17 46 -26.5t43 -30t41 -39.5t25.5 -48t11.5 -61q0 -73 -55.5 -129.5t-158.5 -56.5q-76 0 -148 36q-15 5 -20 5q-3 0 -6 -1t-4.5 -3t-3 -4.5t-3 -6.5t-2 -7t-1.5 -8.5t-2 -8.5
h-8v180h8q17 -79 68 -119.5t124 -40.5q42 0 72.5 12.5t45.5 33.5t21.5 41.5t6.5 41.5q0 60 -37 98.5t-112 78.5q-46 24 -68.5 38.5t-54.5 42t-46 62t-14 78.5q0 80 60 140t155 60q46 0 97 -16q8 -4 21 -4q16 0 22 22h8v-154zM225 784l-137 161h21l128 -106l123 106h21
l-130 -161h-26z" />
    <glyph glyph-name="Ydieresis" unicode="&#x178;" horiz-adv-x="688" 
d="M677 719v-8q-71 -1 -127 -84l-168 -253v-288q0 -38 23 -57.5t56 -20.5v-8h-228v8q75 2 75 78v276l-183 274q-30 45 -53.5 59.5t-61.5 15.5v8h255v-8q-17 -1 -29.5 -5.5t-18.5 -10t-9 -13t-3.5 -11t-0.5 -6.5q0 -15 19 -44l150 -222l133 200q30 45 30 69q0 7 -1.5 12.5
t-4 9.5t-6 7.5t-6.5 5.5t-7.5 3.5t-6.5 2l-6 1.5l-4 1v8h183zM443 878q19 0 33 -14t14 -33t-14 -33t-33 -14t-33 14t-14 33t14 33t33 14zM246 877q19 0 32.5 -13.5t13.5 -32.5t-13.5 -33t-32.5 -14q-20 0 -33.5 14t-13.5 33t14 32.5t33 13.5z" />
    <glyph glyph-name="Zcaron" unicode="&#x17d;" horiz-adv-x="646" 
d="M511 692h-344q-63 0 -94.5 -22.5t-41.5 -81.5h-8v131h589v-14l-498 -678h345q44 0 73.5 6.5t47.5 22.5t26 28t19 36h8l-34 -120h-585v15zM314 784l-137 161h21l128 -106l123 106h21l-130 -161h-26z" />
    <glyph glyph-name="zcaron" unicode="&#x17e;" horiz-adv-x="646" 
d="M511 692h-344q-63 0 -94.5 -22.5t-41.5 -81.5h-8v131h589v-14l-498 -678h345q44 0 73.5 6.5t47.5 22.5t26 28t19 36h8l-34 -120h-585v15zM314 784l-137 161h21l128 -106l123 106h21l-130 -161h-26z" />
    <glyph glyph-name="florin" unicode="&#x192;" horiz-adv-x="667" 
d="M532 455l-4 -27h-107l-55 -286l-5 -20q0 -2 -4 -20q-5 -23 -8.5 -35.5t-13.5 -41t-20.5 -46.5t-29 -42.5t-40.5 -38.5t-54 -24.5t-69 -10.5q-78 0 -122 23l16 72h18q23 -78 91 -78q58 0 100 40q19 18 33 48t20 51t17 66q0 1 2 9l2 8l63 326h-106l4 27h106l13 62
q7 35 12.5 57t20.5 57.5t33.5 56t51 36.5t73.5 16q33 0 71 -12l7 11h19l-19 -88h-20q-5 20 -9.5 32.5t-19.5 25.5t-38 13q-28 0 -49.5 -16t-34.5 -46t-18.5 -50.5t-11.5 -51.5l-21 -103h106z" />
    <glyph glyph-name="circumflex" unicode="&#x2c6;" horiz-adv-x="333" 
d="M176 945l137 -161h-21l-128 107l-123 -107h-21l130 161h26z" />
    <glyph glyph-name="caron" unicode="&#x2c7;" horiz-adv-x="333" 
d="M157 784l-137 161h21l128 -106l123 106h21l-130 -161h-26z" />
    <glyph glyph-name="uni02C9" unicode="&#x2c9;" horiz-adv-x="333" 
d="M21 859h291v-53h-291v53z" />
    <glyph glyph-name="breve" unicode="&#x2d8;" horiz-adv-x="333" 
d="M21 932h18q5 -38 31 -58.5t93 -20.5q73 0 98.5 17t31.5 62h19q1 -22 -5 -45.5t-20.5 -47.5t-46 -39.5t-74.5 -15.5q-45 0 -76.5 16t-45.5 41t-19 47.5t-4 43.5z" />
    <glyph glyph-name="dotaccent" unicode="&#x2d9;" horiz-adv-x="333" 
d="M166 878q20 0 33.5 -13.5t13.5 -32.5t-13.5 -33t-33.5 -14q-19 0 -32.5 14t-13.5 33t14 32.5t32 13.5z" />
    <glyph glyph-name="ring" unicode="&#x2da;" horiz-adv-x="333" 
d="M166 960q37 0 62.5 -26t25.5 -62t-25.5 -62t-62.5 -26q-36 0 -61.5 26t-25.5 62t25.5 62t61.5 26zM167 931q-25 0 -42 -17.5t-17 -41.5t17 -41.5t42 -17.5q24 0 41 17.5t17 41.5t-17 41.5t-41 17.5z" />
    <glyph glyph-name="ogonek" unicode="&#x2db;" horiz-adv-x="333" 
d="M279 -100l12 -13q-52 -52 -113 -52q-45 0 -63 23.5t-18 51.5q0 49 43 96h22q-18 -43 -18 -66q0 -30 18 -46t49 -16q34 0 68 22z" />
    <glyph glyph-name="tilde" unicode="&#x2dc;" horiz-adv-x="333" 
d="M188 794l-40 14q-54 19 -71 19q-25 0 -39 -42h-17q1 43 27.5 69t58.5 26q20 0 74 -19q58 -20 71 -20q31 0 42 39h18q-6 -39 -29 -66.5t-56 -27.5q-18 0 -39 8z" />
    <glyph glyph-name="hungarumlaut" unicode="&#x2dd;" horiz-adv-x="333" 
d="M236 944l-140 -160h-20l100 160h60zM354 944l-140 -160h-20l100 160h60z" />
    <glyph glyph-name="uni03A9" unicode="&#x3a9;" 
d="M12 0v665h475v-665h-475zM88 618l162 -243l161 243h-323zM60 575v-484l40 61l80 120l41 61zM440 575l-162 -242l162 -243v485zM411 48l-161 242l-162 -242h323z" />
    <glyph glyph-name="uni03BC" unicode="&#x3bc;" 
d="M12 0v665h475v-665h-475zM88 618l162 -243l161 243h-323zM60 575v-484l40 61l80 120l41 61zM440 575l-162 -242l162 -243v485zM411 48l-161 242l-162 -242h323z" />
    <glyph glyph-name="pi" unicode="&#x3c0;" 
d="M12 0v665h475v-665h-475zM88 618l162 -243l161 243h-323zM60 575v-484l40 61l80 120l41 61zM440 575l-162 -242l162 -243v485zM411 48l-161 242l-162 -242h323z" />
    <glyph glyph-name="endash" unicode="&#x2013;" 
d="M-6 373h512v-32h-512v32z" />
    <glyph glyph-name="emdash" unicode="&#x2014;" horiz-adv-x="1000" 
d="M-6 373h1012v-32h-1012v32z" />
    <glyph glyph-name="quoteleft" unicode="&#x2018;" horiz-adv-x="146" 
d="M114 741v-7q-28 -19 -42.5 -49t-14.5 -57q0 -31 11 -31q2 0 8 1.5t8 1.5q17 0 30 -14t13 -31t-12.5 -30t-31.5 -13q-24 0 -44 22.5t-20 65.5t23.5 81t71.5 60z" />
    <glyph glyph-name="quoteright" unicode="&#x2019;" horiz-adv-x="146" 
d="M30 512v7q31 21 44.5 51t13.5 56q0 29 -10 29h-7h-11.5h-6.5q-15 2 -24.5 14.5t-9.5 29.5q0 20 13.5 30.5t30.5 10.5q27 0 45.5 -24.5t18.5 -61.5q0 -44 -26.5 -84.5t-70.5 -57.5z" />
    <glyph glyph-name="quotesinglbase" unicode="&#x201a;" horiz-adv-x="146" 
d="M30 -145v6l1 1q53 43 56 111q0 27 -8 27q-1 0 -7 -2l-8 -2q-19 0 -32 12t-13 32q0 19 13.5 31.5t32.5 12.5q24 0 43 -24.5t19 -60.5q0 -99 -97 -144z" />
    <glyph glyph-name="quotedblleft" unicode="&#x201c;" horiz-adv-x="281" 
d="M114 741v-7q-28 -19 -42.5 -49t-14.5 -57q0 -31 11 -31q2 0 8 1.5t8 1.5q17 0 30 -14t13 -31t-12.5 -30t-31.5 -13q-24 0 -44 22.5t-20 65.5t23.5 81t71.5 60zM250 741v-7q-28 -19 -42.5 -49t-14.5 -57q0 -31 11 -31q1 0 7.5 1.5t7.5 1.5q18 0 31 -13.5t13 -31.5
q0 -17 -13 -30t-32 -13q-24 0 -44 22.5t-20 65.5t24 81t72 60z" />
    <glyph glyph-name="quotedblright" unicode="&#x201d;" horiz-adv-x="281" 
d="M31 512v7q31 21 44.5 51t13.5 56q0 29 -10 29h-25q-15 2 -24.5 14.5t-9.5 29.5q0 20 13.5 30.5t30.5 10.5q27 0 45.5 -24.5t18.5 -61.5q0 -44 -26.5 -84.5t-70.5 -57.5zM167 512v7q31 21 44 51t13 56q0 29 -10 29h-25q-15 2 -24.5 14.5t-9.5 29.5q0 20 13.5 30.5
t30.5 10.5q27 0 46 -24.5t19 -61.5q0 -44 -26.5 -84.5t-70.5 -57.5z" />
    <glyph glyph-name="quotedblbase" unicode="&#x201e;" horiz-adv-x="281" 
d="M29 -146v7q31 21 44.5 51t13.5 56q0 29 -10 29h-25q-15 2 -24.5 14.5t-9.5 29.5q0 20 13.5 30.5t30.5 10.5q27 0 45.5 -24.5t18.5 -61.5q0 -44 -26.5 -84.5t-70.5 -57.5zM165 -146v7q31 21 44 51t13 56q0 29 -10 29h-25q-15 2 -24.5 14.5t-9.5 29.5q0 20 13.5 30.5
t30.5 10.5q27 0 46 -24.5t19 -61.5q0 -44 -26.5 -84.5t-70.5 -57.5z" />
    <glyph glyph-name="dagger" unicode="&#x2020;" 
d="M12 0v665h475v-665h-475zM88 618l162 -243l161 243h-323zM60 575v-484l40 61l80 120l41 61zM440 575l-162 -242l162 -243v485zM411 48l-161 242l-162 -242h323z" />
    <glyph glyph-name="daggerdbl" unicode="&#x2021;" 
d="M12 0v665h475v-665h-475zM88 618l162 -243l161 243h-323zM60 575v-484l40 61l80 120l41 61zM440 575l-162 -242l162 -243v485zM411 48l-161 242l-162 -242h323z" />
    <glyph glyph-name="bullet" unicode="&#x2022;" horiz-adv-x="281" 
d="M141 441q46 0 79 -32.5t33 -79.5q0 -46 -33 -78.5t-79 -32.5t-79 32.5t-33 78.5q0 47 32.5 79.5t79.5 32.5z" />
    <glyph glyph-name="ellipsis" unicode="&#x2026;" horiz-adv-x="1000" 
d="M211 23q0 -18 -13 -30t-31 -12t-31.5 12.5t-13.5 30.5t13.5 30.5t31.5 12.5t31 -13t13 -31zM878 23q0 -18 -13.5 -30t-31.5 -12t-31 12.5t-13 30.5t13 30.5t31 12.5t31.5 -13t13.5 -31zM544 23q0 -18 -13 -30t-31 -12t-31.5 12.5t-13.5 30.5t13.5 30.5t31.5 12.5t31 -13
t13 -31z" />
    <glyph glyph-name="perthousand" unicode="&#x2030;" 
d="M12 0v665h475v-665h-475zM88 618l162 -243l161 243h-323zM60 575v-484l40 61l80 120l41 61zM440 575l-162 -242l162 -243v485zM411 48l-161 242l-162 -242h323z" />
    <glyph glyph-name="guilsinglleft" unicode="&#x2039;" horiz-adv-x="198" 
d="M185 598l-101 -243l101 -243h-12l-162 243l162 243h12z" />
    <glyph glyph-name="guilsinglright" unicode="&#x203a;" horiz-adv-x="198" 
d="M13 598h12l162 -243l-162 -243h-12l101 243z" />
    <glyph glyph-name="fraction" unicode="&#x2044;" 
d="M12 0v665h475v-665h-475zM88 618l162 -243l161 243h-323zM60 575v-484l40 61l80 120l41 61zM440 575l-162 -242l162 -243v485zM411 48l-161 242l-162 -242h323z" />
    <glyph glyph-name="Euro" unicode="&#x20ac;" horiz-adv-x="657" 
d="M584 334l-8 -22h-451q11 -137 85 -219.5t186 -82.5q50 0 110 22t109 74v-28q-59 -50 -108.5 -73.5t-124.5 -23.5q-145 0 -236 97t-104 234h-63l8 22h53v16q0 15 2 45h-63l8 22h58q22 138 120.5 230.5t227.5 92.5q60 0 125 -19l47 -14q15 -3 23 -3q17 0 23 5.5t9 20.5h8
l-7 -172h-9q-7 41 -31.5 73.5t-57.5 50.5t-66.5 27t-63.5 9q-106 0 -179.5 -83t-87.5 -218h480l-8 -22h-474q-1 -12 -1 -36q0 -17 1 -25h460z" />
    <glyph glyph-name="afii61289" unicode="&#x2113;" 
d="M12 0v665h475v-665h-475zM88 618l162 -243l161 243h-323zM60 575v-484l40 61l80 120l41 61zM440 575l-162 -242l162 -243v485zM411 48l-161 242l-162 -242h323z" />
    <glyph glyph-name="trademark" unicode="&#x2122;" horiz-adv-x="906" 
d="M98 324v16q36 -1 46.5 12.5t10.5 66.5v276h-45q-37 0 -54.5 -12.5t-22.5 -55.5h-13v92h329v-92h-12q-5 40 -20 54t-57 14h-45v-276q0 -53 10.5 -66.5t46.5 -12.5v-16h-174zM384 719h116l144 -310l140 310h111v-16q-38 -2 -47 -12t-9 -51v-231q0 -44 9 -56t47 -13v-16
h-169v16q38 0 48 12t10 57v251h-2l-150 -336h-8l-155 330h-2v-248q0 -45 8 -55.5t49 -10.5v-16h-140v16q40 0 48 11.5t8 57.5v224q0 30 -2 41t-14 19t-40 10v16z" />
    <glyph glyph-name="Omega" unicode="&#x2126;" 
d="M12 0v665h475v-665h-475zM88 618l162 -243l161 243h-323zM60 575v-484l40 61l80 120l41 61zM440 575l-162 -242l162 -243v485zM411 48l-161 242l-162 -242h323z" />
    <glyph glyph-name="estimated" unicode="&#x212e;" 
d="M12 0v665h475v-665h-475zM88 618l162 -243l161 243h-323zM60 575v-484l40 61l80 120l41 61zM440 575l-162 -242l162 -243v485zM411 48l-161 242l-162 -242h323z" />
    <glyph glyph-name="partialdiff" unicode="&#x2202;" 
d="M12 0v665h475v-665h-475zM88 618l162 -243l161 243h-323zM60 575v-484l40 61l80 120l41 61zM440 575l-162 -242l162 -243v485zM411 48l-161 242l-162 -242h323z" />
    <glyph glyph-name="Delta" unicode="&#x2206;" 
d="M12 0v665h475v-665h-475zM88 618l162 -243l161 243h-323zM60 575v-484l40 61l80 120l41 61zM440 575l-162 -242l162 -243v485zM411 48l-161 242l-162 -242h323z" />
    <glyph glyph-name="product" unicode="&#x220f;" 
d="M12 0v665h475v-665h-475zM88 618l162 -243l161 243h-323zM60 575v-484l40 61l80 120l41 61zM440 575l-162 -242l162 -243v485zM411 48l-161 242l-162 -242h323z" />
    <glyph glyph-name="summation" unicode="&#x2211;" 
d="M12 0v665h475v-665h-475zM88 618l162 -243l161 243h-323zM60 575v-484l40 61l80 120l41 61zM440 575l-162 -242l162 -243v485zM411 48l-161 242l-162 -242h323z" />
    <glyph glyph-name="minus" unicode="&#x2212;" horiz-adv-x="667" 
d="M594 260h-521v32h521v-32z" />
    <glyph glyph-name="uni2215" unicode="&#x2215;" 
d="M12 0v665h475v-665h-475zM88 618l162 -243l161 243h-323zM60 575v-484l40 61l80 120l41 61zM440 575l-162 -242l162 -243v485zM411 48l-161 242l-162 -242h323z" />
    <glyph glyph-name="uni2219" unicode="&#x2219;" horiz-adv-x="146" 
d="M73 314q-19 0 -31.5 12.5t-12.5 31.5t12.5 32t31.5 13t32 -13t13 -32t-13 -31.5t-32 -12.5z" />
    <glyph glyph-name="radical" unicode="&#x221a;" 
d="M12 0v665h475v-665h-475zM88 618l162 -243l161 243h-323zM60 575v-484l40 61l80 120l41 61zM440 575l-162 -242l162 -243v485zM411 48l-161 242l-162 -242h323z" />
    <glyph glyph-name="infinity" unicode="&#x221e;" 
d="M12 0v665h475v-665h-475zM88 618l162 -243l161 243h-323zM60 575v-484l40 61l80 120l41 61zM440 575l-162 -242l162 -243v485zM411 48l-161 242l-162 -242h323z" />
    <glyph glyph-name="integral" unicode="&#x222b;" 
d="M12 0v665h475v-665h-475zM88 618l162 -243l161 243h-323zM60 575v-484l40 61l80 120l41 61zM440 575l-162 -242l162 -243v485zM411 48l-161 242l-162 -242h323z" />
    <glyph glyph-name="approxequal" unicode="&#x2248;" horiz-adv-x="667" 
d="M595 414q-16 -38 -51.5 -61t-84.5 -23q-63 0 -143 40q-50 26 -107 26q-44 0 -67 -16t-46 -50l-23 13q10 31 44 58t96 27q56 0 134 -38q55 -28 116 -28q64 0 107 65zM595 202q-16 -38 -51.5 -61t-84.5 -23q-63 0 -143 40q-50 26 -107 26q-30 0 -53 -10.5t-33.5 -21.5
t-26.5 -34l-23 13q10 31 44 57.5t96 26.5q58 0 134 -37q57 -29 116 -29q64 0 107 66z" />
    <glyph glyph-name="notequal" unicode="&#x2260;" horiz-adv-x="665" 
d="M594 150h-319l-81 -145h-34l80 145h-167v32h186l103 181h-289v32h307l91 163h34l-91 -163h180v-32h-198l-103 -181h301v-32z" />
    <glyph glyph-name="lessequal" unicode="&#x2264;" horiz-adv-x="667" 
d="M594 0h-521v32h521v-32zM594 86l-521 234v20l521 234v-38l-474 -206l474 -206v-38z" />
    <glyph glyph-name="greaterequal" unicode="&#x2265;" horiz-adv-x="667" 
d="M594 0h-521v32h521v-32zM594 320l-521 -234v38l474 205l-474 207v38l521 -234v-20z" />
    <glyph glyph-name="lozenge" unicode="&#x25ca;" 
d="M12 0v665h475v-665h-475zM88 618l162 -243l161 243h-323zM60 575v-484l40 61l80 120l41 61zM440 575l-162 -242l162 -243v485zM411 48l-161 242l-162 -242h323z" />
    </font>
</defs>
</svg>
